<svg width="62" height="62" viewBox="0 0 62 62" fill="none" xmlns="http://www.w3.org/2000/svg">
<path d="M46.5006 15.5H15.5007C12.6472 15.5 10.334 17.8132 10.334 20.6667V41.3333C10.334 44.1868 12.6472 46.5 15.5007 46.5H46.5006C49.3541 46.5 51.6673 44.1868 51.6673 41.3333V20.6667C51.6673 17.8132 49.3541 15.5 46.5006 15.5Z" stroke="#FDFDFD" stroke-width="2.58333"/>
<path d="M28.6912 32.4286L10.334 23.25V41.3333C10.334 42.7036 10.8783 44.0178 11.8473 44.9867C12.8162 45.9557 14.1304 46.5 15.5007 46.5H46.5006C47.8709 46.5 49.1851 45.9557 50.154 44.9867C51.123 44.0178 51.6673 42.7036 51.6673 41.3333V23.25L33.3102 32.4286C32.593 32.7869 31.8023 32.9735 31.0007 32.9735C30.199 32.9735 29.4083 32.7869 28.6912 32.4286Z" fill="#FDFDFD"/>
</svg>
