<svg width="1440" height="372" viewBox="0 0 1440 372" fill="none" xmlns="http://www.w3.org/2000/svg">
<path d="M-106.963 368.057L-93.3526 371M-106.963 368.057H-66.6288M-106.963 368.057L-121.027 365.017M-106.963 368.057H-135.529M-53.6664 371H-93.3526L-98.3052 370.999L-103.207 370.992L-108.006 370.975L-112.655 370.939L-117.102 370.882L-121.3 370.796L-125.2 370.676L-128.819 370.523L-131.924 370.312L-134.752 370.068L-135.529 369.982V368.057M-53.6664 371H-13.9803M-53.6664 371L-66.6288 368.057M-13.9803 371H25.7068M-13.9803 371L-26.2941 368.057M25.7068 371H65.393M25.7068 371L14.0397 368.057M65.393 371H105.079M65.393 371L54.3742 368.057M105.079 371H144.766M105.079 371L94.7089 368.057M144.766 371H184.452M144.766 371L135.044 368.057M184.452 371H224.138M184.452 371L175.378 368.057M224.138 371H263.826M224.138 371L215.713 368.057M263.826 371H303.512M263.826 371L256.047 368.057M303.512 371H343.198M303.512 371L296.382 368.057M343.198 371H382.884M343.198 371L336.717 368.057M382.884 371H422.571M382.884 371L381.444 370.273L379.261 369.172L377.051 368.057M422.571 371H462.257M422.571 371L421.291 370.273L417.386 368.057M462.257 371H501.944M462.257 371L457.721 368.057M501.944 371H541.631M501.944 371L500.501 369.907L499.039 368.802L498.548 368.43L498.055 368.057M541.631 371H581.317M541.631 371L540.428 369.907L540.023 369.541L539.617 369.172L538.389 368.057M581.317 371H621.003M581.317 371L578.724 368.057M621.003 371L620.763 370.637L620.523 370.273L619.306 368.43L619.059 368.057M621.003 371H660.689M660.689 371H700.376M660.689 371L659.393 368.057M700.376 371H740.062M700.376 371L700.135 369.907L699.728 368.057M740.062 371H779.749M740.062 371V368.057M779.749 371H819.436M779.749 371L779.989 369.907L780.397 368.057M819.436 371H859.122M819.436 371L820.732 368.057M859.122 371L859.362 370.637L859.602 370.273L860.819 368.43L861.066 368.057M859.122 371H898.808M898.808 371H938.495M898.808 371L901.072 368.43L901.401 368.057M938.495 371H978.181M938.495 371L939.697 369.907L940.102 369.541L940.916 368.802L941.324 368.43L941.736 368.057M978.181 371H1017.87M978.181 371L979.624 369.907L981.086 368.802L981.577 368.43L982.07 368.057M1017.87 371H1057.55M1017.87 371L1022.4 368.057M1057.55 371H1097.24M1057.55 371L1058.83 370.273L1062.74 368.057M1097.24 371H1136.93M1097.24 371L1103.07 368.057M1136.93 371H1176.61M1136.93 371L1143.41 368.057M1176.61 371H1216.3M1176.61 371L1183.74 368.057M1216.3 371H1255.99M1216.3 371L1224.08 368.057M1255.99 371H1295.67M1255.99 371L1264.41 368.057M1295.67 371H1335.36M1295.67 371L1304.75 368.057M1335.36 371H1375.05M1335.36 371L1345.08 368.057M1375.05 371H1414.73M1375.05 371L1385.42 368.057M1414.73 371H1454.42M1414.73 371L1425.75 368.057M1454.42 371H1494.1M1454.42 371L1466.09 368.057M1494.1 371H1533.79M1494.1 371L1506.42 368.057M1615.65 368.057V369.982L1614.88 370.068L1612.05 370.312L1608.94 370.523L1605.32 370.676L1601.43 370.796L1597.23 370.882L1592.78 370.939L1588.13 370.975L1583.33 370.992L1578.43 370.999L1573.48 371H1533.79M1533.79 371L1546.75 368.057M1573.48 371L1587.09 368.057M1506.42 368.057H1466.09M1506.42 368.057H1546.75M1506.42 368.057L1519.14 365.017M1466.09 368.057L1478.14 365.017M1466.09 368.057H1425.75M1345.08 368.057H1304.75M1345.08 368.057H1385.42M1345.08 368.057L1347.56 367.306L1355.13 365.017M1304.75 368.057L1314.12 365.017M1304.75 368.057H1264.41M1183.74 368.057H1143.41M1183.74 368.057H1224.08M1183.74 368.057L1185.56 367.306L1186.48 366.929L1191.11 365.017M1143.41 368.057L1144.23 367.683L1145.06 367.306L1150.1 365.017M1143.41 368.057H1103.07M1022.4 368.057L1022.98 367.683L1027.09 365.017M1022.4 368.057H982.07M1022.4 368.057H1062.74M982.07 368.057L983.062 367.306L983.562 366.929L984.062 366.549L986.088 365.017M982.07 368.057H941.736M861.066 368.057H820.732M861.066 368.057H901.401M861.066 368.057L863.075 365.017M820.732 368.057L820.897 367.683L821.062 367.306L821.229 366.929L821.732 365.787L822.071 365.017M820.732 368.057H780.397M699.728 368.057H659.393M699.728 368.057H740.062M699.728 368.057L699.058 365.017M659.393 368.057L659.228 367.683L659.063 367.306L658.896 366.929L658.054 365.017M659.393 368.057H619.059M538.389 368.057H498.055M538.389 368.057H578.724M538.389 368.057L537.563 367.306L535.888 365.787L535.466 365.402L535.041 365.017M498.055 368.057L497.063 367.306L496.563 366.929L496.063 366.549L494.037 365.017M498.055 368.057H457.721M377.051 368.057H336.717M377.051 368.057H417.386M377.051 368.057L375.563 367.306L374.814 366.929L371.024 365.017M336.717 368.057L335.891 367.683L335.063 367.306L330.02 365.017M336.717 368.057H296.382M215.713 368.057H175.378M215.713 368.057H256.047M215.713 368.057L213.563 367.306L212.481 366.929L207.007 365.017M175.378 368.057L166.003 365.017M175.378 368.057H135.044M54.3742 368.057H14.0397M54.3742 368.057H94.7089M54.3742 368.057L42.9907 365.017M14.0397 368.057L1.98566 365.017M14.0397 368.057H-26.2941M1615.79 340.535H1615.65M1575.2 340.535L1559.8 344.419M1575.2 340.535L1591.19 336.502M1575.2 340.535H1528.8M1575.2 340.535H1615.65M1559.8 344.419H1605.34M1559.8 344.419L1544.96 348.163M1559.8 344.419H1514.26M1605.34 344.419L1589.67 348.163M1605.34 344.419H1615.65M1605.34 344.419L1615.65 341.955M1559.98 355.258H1516.83M1559.98 355.258L1545.9 358.623M1559.98 355.258H1603.14M1559.98 355.258L1574.56 351.773M1516.83 355.258L1503.49 358.623M1516.83 355.258L1530.64 351.773M1516.83 355.258H1473.67M1545.9 358.623H1503.49M1545.9 358.623L1532.3 361.873M1545.9 358.623H1588.31M1503.49 358.623H1461.08M1503.49 358.623L1490.6 361.873M1616.1 279.226H1615.65M1578.66 279.226L1558.8 285.666M1578.66 279.226L1599.51 272.466M1578.66 279.226H1518.76M1578.66 279.226H1615.65M1558.8 285.666L1539.86 291.807M1558.8 285.666H1500.32M1558.8 285.666H1615.65M1596.99 291.807H1539.86M1596.99 291.807L1577.62 297.672M1596.99 291.807H1615.65M1596.99 291.807L1615.65 286.159M1559.1 303.277H1504.5M1559.1 303.277L1541.39 308.639M1559.1 303.277H1613.7M1559.1 303.277L1577.62 297.672M1504.5 303.277L1487.96 308.639M1504.5 303.277L1521.78 297.672M1504.5 303.277H1449.9M1541.39 308.639H1487.96M1541.39 308.639H1594.81M1541.39 308.639L1524.42 313.774M1487.96 308.639L1472.13 313.774M1487.96 308.639H1434.54M1492.55 323.419H1442.39M1492.55 323.419L1477.57 327.954M1492.55 323.419H1542.72M1492.55 323.419L1508.16 318.697M1442.39 323.419L1428.41 327.954M1442.39 323.419L1456.95 318.697M1442.39 323.419H1392.22M1477.57 327.954H1428.41M1477.57 327.954H1526.74M1477.57 327.954L1463.18 332.311M1428.41 327.954L1414.97 332.311M1428.41 327.954H1379.24M1436.01 340.535H1389.61M1436.01 340.535L1423.18 344.419M1436.01 340.535H1482.4M1436.01 340.535L1449.33 336.502M1389.61 340.535L1377.63 344.419M1389.61 340.535L1402.05 336.502M1389.61 340.535H1343.22M1423.18 344.419H1377.63M1423.18 344.419H1468.72M1423.18 344.419L1410.81 348.163M1377.63 344.419L1366.09 348.163M1377.63 344.419H1332.09M1387.37 355.258H1344.21M1387.37 355.258L1376.25 358.623M1387.37 355.258H1430.52M1387.37 355.258L1398.88 351.773M1344.21 355.258L1333.84 358.623M1344.21 355.258L1354.96 351.773M1344.21 355.258H1301.06M1376.25 358.623H1333.84M1376.25 358.623L1365.51 361.873M1376.25 358.623H1418.66M1333.84 358.623H1291.43M1333.84 358.623L1323.81 361.873M1584.96 167.579L1557.02 180.268M1584.96 167.579L1614.89 153.991M1584.96 167.579H1500.47M1584.96 167.579H1615.65M1557.02 180.268L1530.86 192.144M1557.02 180.268H1475.32M1557.02 180.268H1615.65M1557.58 213.754H1483.26M1557.58 213.754L1533.7 223.611M1557.58 213.754L1582.95 203.284M1557.58 213.754H1615.65M1483.26 213.754L1461.55 223.611M1483.26 213.754L1506.32 203.284M1483.26 213.754H1408.94M1533.7 223.611H1461.55M1533.7 223.611H1605.85M1533.7 223.611L1511.17 232.909M1461.55 223.611L1441.07 232.909M1461.55 223.611H1389.4M1469.75 250.007H1403.42M1469.75 250.007L1450.66 257.885M1469.75 250.007H1536.09M1469.75 250.007L1489.89 241.694M1403.42 250.007L1386.06 257.885M1403.42 250.007L1421.73 241.694M1403.42 250.007H1337.08M1450.66 257.885H1386.06M1450.66 257.885H1515.27M1450.66 257.885L1432.55 265.361M1386.06 257.885L1369.6 265.361M1386.06 257.885H1321.46M1398.96 279.226H1339.06M1398.96 279.226L1383.36 285.666M1398.96 279.226H1458.86M1398.96 279.226L1415.34 272.466M1339.06 279.226L1324.88 285.666M1339.06 279.226L1353.95 272.466M1339.06 279.226H1279.16M1383.36 285.666H1324.88M1383.36 285.666H1441.84M1383.36 285.666L1368.48 291.807M1324.88 285.666L1311.35 291.807M1324.88 285.666H1266.4M1340.69 303.277H1286.09M1340.69 303.277L1327.7 308.639M1340.69 303.277H1395.29M1340.69 303.277L1354.27 297.672M1286.09 303.277L1274.28 308.639M1286.09 303.277L1298.43 297.672M1286.09 303.277H1231.49M1327.7 308.639H1274.28M1327.7 308.639H1381.12M1327.7 308.639L1315.26 313.774M1274.28 308.639L1262.97 313.774M1274.28 308.639H1220.86M1291.89 323.419H1241.72M1291.89 323.419L1280.9 327.954M1291.89 323.419H1342.06M1291.89 323.419L1303.33 318.697M1241.72 323.419L1240.45 323.996L1231.74 327.954M1241.72 323.419L1252.12 318.697M1241.72 323.419H1191.56M1280.9 327.954H1231.74M1280.9 327.954H1330.07M1280.9 327.954L1270.35 332.311M1231.74 327.954L1222.14 332.311M1231.74 327.954H1182.57M1250.42 340.535H1204.03M1250.42 340.535L1241.01 344.419M1250.42 340.535H1296.82M1250.42 340.535L1260.19 336.502M1204.03 340.535L1195.47 344.419M1204.03 340.535L1207.32 339.04L1212.91 336.502M1204.03 340.535H1157.63M1241.01 344.419H1195.47M1241.01 344.419H1286.55M1241.01 344.419L1231.94 348.163M1195.47 344.419L1187.23 348.163M1195.47 344.419H1149.93M1214.75 355.258H1171.6M1214.75 355.258L1206.6 358.623M1214.75 355.258H1257.91M1214.75 355.258L1223.19 351.773M1171.6 355.258L1166.02 357.792L1165.1 358.208L1164.19 358.623M1171.6 355.258L1179.27 351.773M1171.6 355.258H1128.45M1206.6 358.623H1164.19M1206.6 358.623L1198.72 361.873M1206.6 358.623H1249.01M1164.19 358.623H1121.78M1164.19 358.623L1157.03 361.873M1554.35 23.0311H1438.03M1554.35 23.0311L1517.72 46.7888M1554.35 23.0311L1594.6 -3.07567M1554.35 23.0311L1615.65 23.0306M1438.03 23.0311L1406.63 46.7888M1438.03 23.0311L1472.53 -3.07567M1438.03 23.0311H1321.7M1517.72 46.7888H1406.63M1517.72 46.7888L1484.25 68.5011M1517.72 46.7888H1615.65M1406.63 46.7888L1377.94 68.5011M1406.63 46.7888H1295.53M1425.26 106.763H1327.37M1425.26 106.763L1399.14 123.706M1425.26 106.763H1523.14M1425.26 106.763L1453.54 88.4214M1327.37 106.763L1304.98 123.706M1327.37 106.763L1351.61 88.4214M1327.37 106.763H1229.49M1399.14 123.706H1304.98M1399.14 123.706H1493.29M1399.14 123.706L1374.93 139.404M1304.98 123.706L1284.24 139.404M1304.98 123.706H1210.83M1331.49 167.579H1247M1331.49 167.579L1311.93 180.268M1331.49 167.579H1415.98M1331.49 167.579L1352.44 153.991M1247 167.579L1230.23 180.268M1247 167.579L1264.96 153.991M1247 167.579H1162.51M1311.93 180.268H1230.23M1311.93 180.268H1393.63M1311.93 180.268L1293.62 192.144M1230.23 180.268L1214.54 192.144M1230.23 180.268H1148.54M1260.3 213.754H1185.98M1260.3 213.754L1245.11 223.611M1260.3 213.754H1334.62M1260.3 213.754L1276.44 203.284M1185.98 213.754L1172.96 223.611M1185.98 213.754L1199.82 203.284M1185.98 213.754H1111.66M1245.11 223.611H1172.96M1245.11 223.611H1317.25M1245.11 223.611L1230.77 232.909M1172.96 223.611L1160.67 232.909M1172.96 223.611H1100.81M1204.41 250.007H1138.07M1204.41 250.007L1192.26 257.885M1204.41 250.007H1270.75M1204.41 250.007L1217.23 241.694M1138.07 250.007L1127.66 257.885M1138.07 250.007L1149.06 241.694M1138.07 250.007H1071.74M1192.26 257.885H1127.66M1192.26 257.885H1256.86M1192.26 257.885L1180.74 265.361M1127.66 257.885L1117.78 265.361M1127.66 257.885H1063.06M1159.36 279.226H1099.46M1159.36 279.226L1149.43 285.666M1159.36 279.226H1219.26M1159.36 279.226L1169.78 272.466M1099.46 279.226L1090.95 285.666M1099.46 279.226L1108.4 272.466M1099.46 279.226H1039.56M1149.43 285.666H1090.95M1149.43 285.666H1207.91M1149.43 285.666L1139.96 291.807M1090.95 285.666L1082.83 291.807M1090.95 285.666H1032.47M1122.28 303.277H1067.68M1122.28 303.277L1114.01 308.639M1122.28 303.277H1176.88M1122.28 303.277L1130.92 297.672M1067.68 303.277L1060.59 308.639M1067.68 303.277L1075.08 297.672M1067.68 303.277H1013.08M1114.01 308.639H1060.59M1114.01 308.639H1167.43M1114.01 308.639L1106.09 313.774M1060.59 308.639L1053.8 313.774M1060.59 308.639H1007.17M1091.23 323.419H1041.06M1091.23 323.419L1084.23 327.954M1091.23 323.419H1141.39M1091.23 323.419L1098.51 318.697M1041.06 323.419L1041.83 322.84L1047.3 318.697M1041.06 323.419L1035.07 327.954M1041.06 323.419H990.893M1084.23 327.954H1035.07M1084.23 327.954H1133.4M1084.23 327.954L1077.52 332.311M1035.07 327.954L1029.31 332.311M1035.07 327.954H985.899M1064.84 340.535H1018.44M1064.84 340.535L1058.85 344.419M1064.84 340.535H1111.23M1064.84 340.535L1071.05 336.502M1018.44 340.535L1013.31 344.419M1018.44 340.535L1020.42 339.04L1021.75 338.032L1023.77 336.502M1018.44 340.535H972.045M1058.85 344.419H1013.31M1058.85 344.419H1104.39M1058.85 344.419L1053.08 348.163M1013.31 344.419L1011.43 345.839L1010.19 346.775L1008.36 348.163M1013.31 344.419H967.767M1042.14 355.258H998.985M1042.14 355.258L1038.23 357.792L1036.95 358.623M1042.14 355.258H1085.29M1042.14 355.258L1046.83 352.216L1047.51 351.773M998.985 355.258L995.635 357.792L995.086 358.208L994.537 358.623M998.985 355.258L1001.27 353.531L1003.59 351.773M998.985 355.258H955.831M1036.95 358.623H994.537M1036.95 358.623L1031.94 361.873M1036.95 358.623H1079.36M994.537 358.623H952.125M994.537 358.623L990.242 361.873M1089.04 23.0311H972.717M1089.04 23.0311L1073.35 46.7888M1089.04 23.0311H1205.37M1089.04 23.0311L1106.29 -3.07567M972.717 23.0311L962.251 46.7888M972.717 23.0311L984.216 -3.07567M972.717 23.0311H856.389M1073.35 46.7888H962.251M1073.35 46.7888H1184.44M1073.35 46.7888L1059 68.5011M962.251 46.7888L952.687 68.5011M962.251 46.7888H851.157M1033.72 106.763H935.833M1033.72 106.763L1022.52 123.706M1033.72 106.763H1131.6M1033.72 106.763L1045.84 88.4214M935.833 106.763L928.369 123.706M935.833 106.763L943.912 88.4214M935.833 106.763H837.947M1022.52 123.706H928.369M1022.52 123.706H1116.68M1022.52 123.706L1012.15 139.404M928.369 123.706L921.454 139.404M928.369 123.706H834.216M993.533 167.579H909.043M993.533 167.579L985.149 180.268M993.533 167.579H1078.02M993.533 167.579L1002.51 153.991M909.043 167.579L903.453 180.268M909.043 167.579L915.028 153.991M909.043 167.579H824.552M985.149 180.268H903.453M985.149 180.268H1066.84M985.149 180.268L977.301 192.144M903.453 180.268L898.221 192.144M903.453 180.268H821.758M963.022 213.754H888.703M963.022 213.754L956.509 223.611M963.022 213.754H1037.34M963.022 213.754L969.941 203.284M888.703 213.754L884.361 223.611M888.703 213.754L893.315 203.284M888.703 213.754H814.383M956.509 223.611H884.361M956.509 223.611H1028.66M956.509 223.611L950.366 232.909M884.361 223.611L880.265 232.909M884.361 223.611H812.211M939.069 250.007H872.733M939.069 250.007L933.864 257.885M939.069 250.007H1005.4M939.069 250.007L944.561 241.694M872.733 250.007L869.263 257.885M872.733 250.007L876.395 241.694M872.733 250.007H806.397M933.864 257.885H869.263M933.864 257.885H998.463M933.864 257.885L928.923 265.361M869.263 257.885L865.97 265.361M869.263 257.885H804.663M919.762 279.226H859.862M919.762 279.226L915.507 285.666M919.762 279.226H979.661M919.762 279.226L924.228 272.466M859.862 279.226L857.025 285.666M859.862 279.226L862.84 272.466M859.862 279.226H799.962M915.507 285.666H857.025M915.507 285.666H973.988M915.507 285.666L913.962 288.002L911.448 291.807M857.025 285.666L854.32 291.807M857.025 285.666H798.544M903.87 303.277H849.268M903.87 303.277L900.327 308.639M903.87 303.277H958.473M903.87 303.277L906.632 299.096L907.574 297.672M849.268 303.277L848.369 305.315L846.905 308.639M849.268 303.277L851.737 297.672M849.268 303.277H794.665M900.327 308.639L899.895 309.293L896.934 313.774M900.327 308.639H846.905M900.327 308.639H953.749M846.905 308.639L846.045 310.591L845.763 311.234L845.48 311.874L844.644 313.774M846.905 308.639H793.483M890.561 323.419H840.395M890.561 323.419L889.048 325.709L888.674 326.274L888.303 326.837L887.932 327.397L887.565 327.954M890.561 323.419H940.727M890.561 323.419L893.681 318.697M840.395 323.419L838.889 326.837L838.642 327.397L838.398 327.954M840.395 323.419L842.475 318.697M840.395 323.419H790.228M887.565 327.954H838.398M887.565 327.954H936.732M887.565 327.954L885.752 330.697L885.395 331.238L884.685 332.311M838.398 327.954L837.189 330.697L836.95 331.238L836.714 331.776L836.478 332.311M838.398 327.954H789.23M879.251 340.535H832.855M879.251 340.535L876.685 344.419M879.251 340.535H925.648M879.251 340.535L879.909 339.541L880.906 338.032L881.916 336.502M832.855 340.535L833.074 340.039L834.406 337.014L834.632 336.502M832.855 340.535L831.144 344.419M832.855 340.535H786.459M876.685 344.419H831.144M876.685 344.419H922.225M876.685 344.419L874.211 348.163M831.144 344.419L830.518 345.839L830.312 346.308L830.106 346.775L829.495 348.163M831.144 344.419H785.603M869.523 355.258H826.37M869.523 355.258L867.848 357.792L867.3 358.623M869.523 355.258H912.677M869.523 355.258L870.378 353.966L870.664 353.531L870.953 353.094L871.826 351.773M826.37 355.258L826.181 355.685L825.808 356.533L825.437 357.374L824.888 358.623M826.37 355.258L827.131 353.531L827.322 353.094L827.71 352.216L827.904 351.773M826.37 355.258H783.216M867.3 358.623H824.888M867.3 358.623L865.417 361.473L865.152 361.873M867.3 358.623H909.713M824.888 358.623L824.706 359.035L824.525 359.446L824.344 359.855L824.166 360.262L823.632 361.473L823.455 361.873M824.888 358.623H782.475M623.736 23.0311H507.408M623.736 23.0311L628.968 46.7888M623.736 23.0311H740.062M623.736 23.0311L617.985 -3.07567M507.408 23.0311L517.873 46.7888M507.408 23.0311L495.908 -3.07567M507.408 23.0311H391.081M628.968 46.7888H517.873M628.968 46.7888H740.062M628.968 46.7888L633.75 68.5011M517.873 46.7888L527.438 68.5011M517.873 46.7888H406.779M642.178 106.763H544.292M642.178 106.763L645.909 123.706M642.178 106.763H740.062M642.178 106.763L638.137 88.4214M544.292 106.763L551.756 123.706M544.292 106.763L536.213 88.4214M544.292 106.763H446.407M645.909 123.706H551.756M645.909 123.706H740.062M645.909 123.706L649.367 139.404M551.756 123.706L558.671 139.404M551.756 123.706H457.602M655.572 167.579H571.082M655.572 167.579L658.367 180.268M655.572 167.579H740.062M655.572 167.579L652.579 153.991M571.082 167.579L576.672 180.268M571.082 167.579L565.097 153.991M571.082 167.579H486.592M658.367 180.268H576.672M658.367 180.268H740.062M658.367 180.268L660.983 192.144M576.672 180.268L581.903 192.144M576.672 180.268H494.976M665.742 213.754H591.422M665.742 213.754L667.914 223.611M665.742 213.754H740.062M665.742 213.754L663.436 203.284M591.422 213.754L595.764 223.611M591.422 213.754L586.81 203.284M591.422 213.754H517.102M667.914 223.611H595.764M667.914 223.611H740.062M667.914 223.611L669.961 232.909M595.764 223.611L599.86 232.909M595.764 223.611H523.615M673.727 250.007H607.392M673.727 250.007L675.462 257.885M673.727 250.007H740.062M673.727 250.007L671.896 241.694M607.392 250.007L610.862 257.885M607.392 250.007L603.73 241.694M607.392 250.007H541.056M675.462 257.885H610.862M675.462 257.885H740.062M675.462 257.885L677.109 265.361M610.862 257.885L614.155 265.361M610.862 257.885H546.261M680.163 279.226H620.262M680.163 279.226L681.581 285.666M680.163 279.226H740.062M680.163 279.226L678.673 272.466M620.262 279.226L623.1 285.666M620.262 279.226L617.284 272.466M620.262 279.226H560.363M681.581 285.666H623.1M681.581 285.666H740.062M681.581 285.666L682.934 291.807M623.1 285.666L625.805 291.807M623.1 285.666H564.618M685.46 303.277H630.857M685.46 303.277L686.641 308.639M685.46 303.277H740.062M685.46 303.277L684.225 297.672M630.857 303.277L632.93 307.981L633.219 308.639M630.857 303.277L628.388 297.672M630.857 303.277H576.255M686.641 308.639L686.784 309.293L687.772 313.774M686.641 308.639H633.219M686.641 308.639H740.062M633.219 308.639L634.079 310.591L634.362 311.234L634.645 311.874L635.481 313.774M633.219 308.639H579.798M689.896 323.419H639.73M689.896 323.419L690.895 327.954M689.896 323.419H740.062M689.896 323.419L689.512 321.671L689.381 321.082L689.252 320.491L688.989 319.298L688.856 318.697M639.73 323.419L641.236 326.837L641.728 327.954M639.73 323.419L637.65 318.697M639.73 323.419H589.564M690.895 327.954H641.728M690.895 327.954H740.062M690.895 327.954L691.855 332.311M641.728 327.954L642.936 330.697L643.175 331.238L643.411 331.776L643.647 332.311M641.728 327.954H592.56M693.666 340.535H647.27M693.666 340.535L694.522 344.419M693.666 340.535H740.062M693.666 340.535L692.778 336.502M647.27 340.535L647.051 340.039L645.718 337.014L645.493 336.502M647.27 340.535L648.981 344.419M647.27 340.535H600.873M694.522 344.419H648.981M694.522 344.419H740.062M694.522 344.419L695.346 348.163M648.981 344.419L649.607 345.839L649.813 346.308L650.019 346.775L650.63 348.163M648.981 344.419H603.44M696.908 355.258H653.755M696.908 355.258L697.65 358.623M696.908 355.258H740.062M696.908 355.258L696.141 351.773M653.755 355.258L653.943 355.685L654.317 356.533L654.503 356.955L654.872 357.792L655.054 358.208L655.238 358.623M653.755 355.258L652.994 353.531L652.802 353.094L652.415 352.216L652.221 351.773M653.755 355.258H610.602M697.65 358.623L697.74 359.035L697.832 359.446L697.921 359.855L698.366 361.873M697.65 358.623H655.238M697.65 358.623H740.062M655.238 358.623H612.824M655.238 358.623L655.6 359.446L655.78 359.855L655.959 360.262L656.493 361.473L656.67 361.873M158.426 23.0311H42.0995M158.426 23.0311L184.59 46.7888M158.426 23.0311H274.753M158.426 23.0311L129.676 -3.07567M42.0995 23.0311L73.496 46.7888M42.0995 23.0311L7.5995 -3.07567M42.0995 23.0311H-74.2282M184.59 46.7888H73.496M184.59 46.7888H295.684M184.59 46.7888L208.501 68.5011M73.496 46.7888L102.189 68.5011M73.496 46.7888H-37.5993M250.637 106.763H152.752M250.637 106.763L269.295 123.706M250.637 106.763H348.522M250.637 106.763L230.438 88.4214M152.752 106.763L175.142 123.706M152.752 106.763L128.514 88.4214M152.752 106.763H54.8668M269.295 123.706H175.142M269.295 123.706H363.449M269.295 123.706L286.584 139.404M175.142 123.706L195.888 139.404M175.142 123.706H80.9886M317.611 167.579H233.121M317.611 167.579L331.586 180.268M317.611 167.579H402.102M317.611 167.579L302.646 153.991M233.121 167.579L249.889 180.268M233.121 167.579L215.164 153.991M233.121 167.579H148.631M331.586 180.268H249.889M331.586 180.268H413.281M331.586 180.268L344.665 192.144M249.889 180.268L265.585 192.144M249.889 180.268H168.195M368.462 213.754H294.141M368.462 213.754L379.317 223.611M368.462 213.754H442.782M368.462 213.754L356.932 203.284M294.141 213.754L307.168 223.611M294.141 213.754L280.306 203.284M294.141 213.754H219.821M379.317 223.611H307.168M379.317 223.611H451.467M379.317 223.611L389.557 232.909M307.168 223.611L319.456 232.909M307.168 223.611H235.02M408.386 250.007H342.051M408.386 250.007L417.061 257.885M408.386 250.007H474.721M408.386 250.007L399.231 241.694M342.051 250.007L352.461 257.885M342.051 250.007L331.065 241.694M342.051 250.007H275.715M417.061 257.885H352.461M417.061 257.885H481.662M417.061 257.885L425.295 265.361M352.461 257.885L362.341 265.361M352.461 257.885H287.861M440.563 279.226H380.663M440.563 279.226L447.655 285.666M440.563 279.226H500.463M440.563 279.226L433.118 272.466M380.663 279.226L389.174 285.666M380.663 279.226L371.73 272.466M380.663 279.226H320.764M447.655 285.666H389.174M447.655 285.666H506.136M447.655 285.666L454.419 291.807M389.174 285.666L397.29 291.807M389.174 285.666H330.693M467.049 303.277L466.293 302.59L465.532 301.899L460.877 297.672M467.049 303.277H412.447M467.049 303.277L472.955 308.639M467.049 303.277H521.652M412.447 303.277L419.533 308.639M412.447 303.277L405.04 297.672M412.447 303.277H357.844M472.955 308.639H419.533M472.955 308.639H526.376M472.955 308.639L478.61 313.774M419.533 308.639L426.32 313.774M419.533 308.639H366.112M489.232 323.419H439.065M489.232 323.419L494.226 327.954M489.232 323.419H539.398M489.232 323.419L484.031 318.697M439.065 323.419L442.839 326.274L445.058 327.954M439.065 323.419L432.825 318.697M439.065 323.419H388.899M494.226 327.954H445.058M494.226 327.954H543.393M494.226 327.954L498.434 331.776L499.024 332.311M445.058 327.954L450.816 332.311M445.058 327.954H395.89M508.08 340.535H461.684M508.08 340.535L509.165 341.52L512.358 344.419M508.08 340.535H554.476M508.08 340.535L506.986 339.541L504.765 337.525L503.639 336.502M461.684 340.535L466.817 344.419M461.684 340.535L459.709 339.04L458.377 338.032L456.355 336.502M461.684 340.535H415.287M512.358 344.419H466.817M512.358 344.419H557.899M512.358 344.419L515.464 347.24L516.481 348.163M466.817 344.419L468.694 345.839L469.931 346.775L471.765 348.163M466.817 344.419H421.276M524.294 355.258H481.14M524.294 355.258L526.625 357.374L528 358.623M524.294 355.258H567.448M524.294 355.258L520.457 351.773M481.14 355.258L484.49 357.792L485.039 358.208L485.587 358.623M481.14 355.258L478.858 353.531L476.536 351.773M481.14 355.258H437.987M528 358.623H485.587M528 358.623L529.805 360.262L530.696 361.071L531.139 361.473L531.58 361.873M528 358.623H570.412M485.587 358.623H443.174M485.587 358.623L489.883 361.873M-107.318 123.706H-13.1648M-107.318 123.706L-76.2001 139.404M-107.318 123.706H-135.529M-107.318 123.706L-135.529 109.474M-20.3501 167.579H-104.84M-20.3501 167.579L4.80305 180.268M-20.3501 167.579H64.1399M-20.3501 167.579L-47.2855 153.991M-104.84 167.579L-76.8924 180.268M-104.84 167.579L-134.769 153.991M-104.84 167.579H-135.529M4.80305 180.268H-76.8924M4.80305 180.268H86.4985M4.80305 180.268L28.3464 192.144M-76.8924 180.268L-50.7332 192.144M-76.8924 180.268H-135.529M71.181 213.754H-3.1393M71.181 213.754L90.7214 223.611M71.181 213.754H145.501M71.181 213.754L50.4278 203.284M-3.1393 213.754L18.5718 223.611M-3.1393 213.754L-26.1983 203.284M-3.1393 213.754H-77.4596M90.7214 223.611H18.5718M90.7214 223.611H162.87M90.7214 223.611L109.153 232.909M18.5718 223.611L39.0515 232.909M18.5718 223.611H-53.5769M143.044 250.007H76.7092M143.044 250.007L158.66 257.885M143.044 250.007H209.379M143.044 250.007L126.566 241.694M76.7092 250.007L94.0605 257.885M76.7092 250.007L58.3993 241.694M76.7092 250.007H10.3731M158.66 257.885H94.0605M158.66 257.885H223.26M158.66 257.885L173.48 265.361M94.0605 257.885L110.527 265.361M94.0605 257.885H29.4601M200.964 279.226H141.064M200.964 279.226L213.729 285.666M200.964 279.226H260.863M200.964 279.226L187.564 272.466M141.064 279.226L155.248 285.666M141.064 279.226L126.175 272.466M141.064 279.226H81.1646M213.729 285.666H155.248M213.729 285.666H272.21M213.729 285.666L225.904 291.807M155.248 285.666L168.776 291.807M155.248 285.666H96.7665M248.639 303.277H194.037M248.639 303.277L259.269 308.639M248.639 303.277H303.242M248.639 303.277L237.529 297.672M194.037 303.277L205.848 308.639M194.037 303.277L181.692 297.672M194.037 303.277H139.434M259.269 308.639H205.848M259.269 308.639H312.69M259.269 308.639L269.449 313.774M205.848 308.639L217.159 313.774M205.848 308.639H152.426M288.568 323.419H238.402M288.568 323.419L297.556 327.954M288.568 323.419H338.733M288.568 323.419L279.206 318.697M238.402 323.419L248.388 327.954M238.402 323.419L227.999 318.697M238.402 323.419H188.235M297.556 327.954H248.388M297.556 327.954H346.723M297.556 327.954L306.193 332.311M248.388 327.954L257.986 332.311M248.388 327.954H199.221M322.495 340.535H276.099M322.495 340.535L330.195 344.419M322.495 340.535H368.891M322.495 340.535L320.524 339.541L319.532 339.04L314.5 336.502M276.099 340.535L284.654 344.419M276.099 340.535L267.215 336.502M276.099 340.535H229.702M330.195 344.419H284.654M330.195 344.419H375.735M330.195 344.419L337.615 348.163M284.654 344.419L292.899 348.163M284.654 344.419H239.113M351.679 355.258H308.526M351.679 355.258L358.349 358.623M351.679 355.258H394.833M351.679 355.258L344.772 351.773M308.526 355.258L314.108 357.792L315.024 358.208L315.937 358.623M308.526 355.258L300.851 351.773M308.526 355.258H265.373M358.349 358.623H315.937M358.349 358.623L364 361.473L364.794 361.873M358.349 358.623H400.762M315.937 358.623H273.524M315.937 358.623L323.097 361.873M-122.297 250.007L-99.7407 257.885M-122.297 250.007H-55.962M-122.297 250.007L-135.529 245.386M-122.297 250.007H-135.529M-99.7407 257.885H-35.1403M-99.7407 257.885L-78.3343 265.361M-99.7407 257.885H-135.529M-38.6354 279.226H-98.5359M-38.6354 279.226L-20.1959 285.666M-38.6354 279.226H21.2641M-38.6354 279.226L-57.9914 272.466M-98.5359 279.226L-78.6781 285.666M-98.5359 279.226L-119.38 272.466M-98.5359 279.226H-135.529M-20.1959 285.666H-78.6781M-20.1959 285.666H38.2852M-20.1959 285.666L-2.61023 291.807M-78.6781 285.666L-59.739 291.807M-78.6781 285.666H-135.529M30.229 303.277H-24.3742M30.229 303.277L45.5828 308.639M30.229 303.277H84.8312M30.229 303.277L14.1801 297.672M-24.3742 303.277L-7.83829 308.639M-24.3742 303.277L-41.6562 297.672M-24.3742 303.277H-78.9764M45.5828 308.639H-7.83829M45.5828 308.639H99.0048M45.5828 308.639L60.2873 313.774M-7.83829 308.639L7.9962 313.774M-7.83829 308.639H-61.2603M87.903 323.419H37.7371M87.903 323.419L100.886 327.954M87.903 323.419H138.069M87.903 323.419L74.3815 318.697M37.7371 323.419L51.7183 327.954M37.7371 323.419L23.175 318.697M37.7371 323.419H-12.4297M100.886 327.954H51.7183M100.886 327.954H150.054M100.886 327.954L113.363 332.311M51.7183 327.954L65.155 332.311M51.7183 327.954H2.55114M136.909 340.535H90.5125M136.909 340.535L148.031 344.419M136.909 340.535H183.305M136.909 340.535L125.361 336.502M90.5125 340.535L102.49 344.419M90.5125 340.535L78.0764 336.502M90.5125 340.535H44.1162M148.031 344.419H102.49M148.031 344.419H193.572M148.031 344.419L158.75 348.163M102.49 344.419L114.034 348.163M102.49 344.419H56.949M179.065 355.258H135.911M179.065 355.258L188.699 358.623M179.065 355.258H222.219M179.065 355.258L169.089 351.773M135.911 355.258L146.287 358.623M135.911 355.258L125.167 351.773M135.911 355.258H92.7571M188.699 358.623H146.287M188.699 358.623L198.008 361.873M188.699 358.623H231.111M146.287 358.623H103.873M146.287 358.623L156.311 361.873M-112.761 323.419L-95.7832 327.954M-112.761 323.419H-62.5956M-112.761 323.419L-130.444 318.697M-112.761 323.419H-135.529M-95.7832 327.954H-46.616M-95.7832 327.954L-79.4681 332.311M-95.7832 327.954H-135.529M-48.6764 340.535H-95.0727M-48.6764 340.535L-34.1324 344.419M-48.6764 340.535H-2.28011M-48.6764 340.535L-63.7776 336.502M-95.0727 340.535L-79.6732 344.419M-95.0727 340.535L-111.062 336.502M-95.0727 340.535H-135.529M-34.1324 344.419H-79.6732M-34.1324 344.419H11.4083M-34.1324 344.419L-20.1148 348.163M-79.6732 344.419L-64.8311 348.163M-79.6732 344.419H-125.214M6.45028 355.258H-36.7036M6.45028 355.258L19.0487 358.623M6.45028 355.258H49.6041M6.45028 355.258L-6.59599 351.773M-36.7036 355.258L-23.3636 358.623M-36.7036 355.258L-50.5169 351.773M-36.7036 355.258H-79.8575M19.0487 358.623H-23.3636M19.0487 358.623L31.2212 361.873M19.0487 358.623H61.4611M-23.3636 358.623H-65.7769M-23.3636 358.623L-10.4751 361.873M-50.5169 351.773L-64.8311 348.163M-50.5169 351.773H-94.4388M-50.5169 351.773H-6.59599M-79.8575 355.258L-65.7769 358.623M-79.8575 355.258L-94.4388 351.773M-79.8575 355.258H-123.01M-65.7769 358.623H-108.189M-65.7769 358.623L-52.1715 361.873M-10.4751 361.873H31.2212M-10.4751 361.873H-52.1715M-10.4751 361.873L1.98566 365.017M-94.4388 351.773L-109.548 348.163M-94.4388 351.773H-135.529M-123.01 355.258L-108.189 358.623M-123.01 355.258L-135.529 352.416M-123.01 355.258H-135.529M-108.189 358.623L-93.8678 361.873M-108.189 358.623H-135.529M-52.1715 361.873H-93.8678M-52.1715 361.873L-39.0185 365.017M-93.8678 361.873L-80.0225 365.017M-93.8678 361.873H-135.529M-64.8311 348.163H-109.548M-64.8311 348.163H-20.1148M-125.214 344.419L-109.548 348.163M-125.214 344.419L-135.529 341.955M-125.214 344.419H-135.529M-109.548 348.163H-135.529M-20.1148 348.163H24.6015M-20.1148 348.163L-6.59599 351.773M-6.59599 351.773H37.3249M-111.062 336.502L-127.676 332.311M-111.062 336.502H-63.7776M-111.062 336.502H-135.529M-135.67 340.535H-135.529M-127.676 332.311H-79.4681M-127.676 332.311L-135.529 330.33M-127.676 332.311H-135.529M-79.4681 332.311H-31.2604M-79.4681 332.311L-63.7776 336.502M-63.7776 336.502H-16.493M125.167 351.773L114.034 348.163M125.167 351.773H81.2458M125.167 351.773H169.089M92.7571 355.258L103.873 358.623M92.7571 355.258L81.2458 351.773M92.7571 355.258H49.6041M103.873 358.623H61.4611M103.873 358.623L114.615 361.873M156.311 361.873H114.615M156.311 361.873L166.003 365.017M156.311 361.873H198.008M81.2458 351.773L69.3177 348.163M81.2458 351.773H37.3249M49.6041 355.258L61.4611 358.623M49.6041 355.258L37.3249 351.773M61.4611 358.623L72.9177 361.873M114.615 361.873H72.9177M114.615 361.873L124.999 365.017M37.3249 351.773L24.6015 348.163M31.2212 361.873H72.9177M31.2212 361.873L42.9907 365.017M72.9177 361.873L83.9948 365.017M114.034 348.163H69.3177M114.034 348.163H158.75M56.949 344.419L69.3177 348.163M56.949 344.419L44.1162 340.535M56.949 344.419H11.4083M69.3177 348.163H24.6015M158.75 348.163H203.467M158.75 348.163L169.089 351.773M24.6015 348.163L11.4083 344.419M169.089 351.773H213.009M44.1162 340.535L30.7917 336.502M44.1162 340.535H-2.28011M11.4083 344.419L-2.28011 340.535M-2.28011 340.535L-16.493 336.502M78.0764 336.502L65.155 332.311M78.0764 336.502H30.7917M78.0764 336.502H125.361M30.7917 336.502L16.9474 332.311M30.7917 336.502H-16.493M-16.493 336.502L-31.2604 332.311M65.155 332.311H16.9474M65.155 332.311H113.363M2.55114 327.954L16.9474 332.311M2.55114 327.954L-12.4297 323.419M2.55114 327.954H-46.616M16.9474 332.311H-31.2604M113.363 332.311H161.57M113.363 332.311L125.361 336.502M-31.2604 332.311L-46.616 327.954M125.361 336.502H172.646M-12.4297 323.419L-28.0316 318.697M-12.4297 323.419H-62.5956M-46.616 327.954L-62.5956 323.419M-62.5956 323.419L-79.2372 318.697M23.175 318.697L7.9962 313.774M23.175 318.697H-28.0316M23.175 318.697H74.3815M-28.0316 318.697L-44.2939 313.774M-28.0316 318.697H-79.2372M-79.2372 318.697L-96.584 313.774M-79.2372 318.697H-130.444M-130.444 318.697H-135.529M-130.444 318.697L-135.529 317.339M7.9962 313.774H-44.2939M7.9962 313.774H60.2873M-61.2603 308.639L-44.2939 313.774M-61.2603 308.639L-78.9764 303.277M-61.2603 308.639H-114.681M-44.2939 313.774H-96.584M60.2873 313.774H112.577M60.2873 313.774L74.3815 318.697M-96.584 313.774L-114.681 308.639M-96.584 313.774H-135.529M74.3815 318.697H125.587M-78.9764 303.277L-97.4933 297.672M-78.9764 303.277H-133.579M-114.681 308.639L-133.579 303.277M-114.681 308.639H-135.529M-135.802 313.774H-135.529M-133.579 303.277L-135.529 302.723M-133.579 303.277H-135.529M-41.6562 297.672L-59.739 291.807M-41.6562 297.672H-97.4933M-41.6562 297.672H14.1801M-97.4933 297.672L-116.868 291.807M-97.4933 297.672H-135.529M-136 302.59L-135.529 302.723M-59.739 291.807H-116.868M-59.739 291.807H-2.61023M-116.868 291.807H-135.529M-116.868 291.807L-135.529 286.159M-2.61023 291.807H54.5184M-2.61023 291.807L14.1801 297.672M14.1801 297.672H70.0172M-119.38 272.466H-57.9914M-119.38 272.466L-135.529 267.229M-119.38 272.466H-135.529M-135.973 279.226H-135.529M-57.9914 272.466H3.39753M-57.9914 272.466L-78.3343 265.361M-135.706 267.171L-135.529 267.229M300.851 351.773L292.899 348.163M300.851 351.773H256.93M300.851 351.773H344.772M265.373 355.258L273.524 358.623M265.373 355.258L256.93 351.773M265.373 355.258H222.219M273.524 358.623H231.111M273.524 358.623L281.4 361.873M323.097 361.873H281.4M323.097 361.873L325.721 363.064L330.02 365.017M323.097 361.873H364.794M256.93 351.773L248.183 348.163M256.93 351.773H213.009M222.219 355.258L231.111 358.623M222.219 355.258L213.009 351.773M231.111 358.623L239.704 361.873M281.4 361.873H239.704M281.4 361.873L289.015 365.017M213.009 351.773L203.467 348.163M198.008 361.873L207.007 365.017M198.008 361.873H239.704M239.704 361.873L240.758 362.273L242.853 363.064L248.011 365.017M292.899 348.163H248.183M292.899 348.163H337.615M239.113 344.419L248.183 348.163M239.113 344.419L229.702 340.535M239.113 344.419H193.572M248.183 348.163H203.467M337.615 348.163H382.331M337.615 348.163L344.772 351.773M203.467 348.163L193.572 344.419M344.772 351.773H388.694M229.702 340.535L219.93 336.502M229.702 340.535H183.305M193.572 344.419L192.309 343.942L183.305 340.535M183.305 340.535L172.646 336.502M267.215 336.502L266.081 335.986L257.986 332.311M267.215 336.502H219.93M267.215 336.502H314.5M219.93 336.502L209.778 332.311M219.93 336.502H172.646M172.646 336.502L161.57 332.311M257.986 332.311H209.778M257.986 332.311H306.193M199.221 327.954L209.778 332.311M199.221 327.954L188.235 323.419M199.221 327.954H150.054M209.778 332.311H161.57M306.193 332.311H354.401M306.193 332.311L314.5 336.502M161.57 332.311L150.054 327.954M314.5 336.502H361.784M188.235 323.419L176.794 318.697M188.235 323.419H138.069M150.054 327.954L138.069 323.419M138.069 323.419L125.587 318.697M227.999 318.697L217.159 313.774M227.999 318.697H176.794M227.999 318.697H279.206M176.794 318.697L164.867 313.774M176.794 318.697H125.587M125.587 318.697L112.577 313.774M217.159 313.774H164.867M217.159 313.774H269.449M152.426 308.639L164.867 313.774M152.426 308.639L139.434 303.277M152.426 308.639H99.0048M164.867 313.774H112.577M269.449 313.774H321.739M269.449 313.774L279.206 318.697M112.577 313.774L99.0048 308.639M279.206 318.697H330.413M139.434 303.277L125.854 297.672M139.434 303.277H84.8312M99.0048 308.639L84.8312 303.277M84.8312 303.277L70.0172 297.672M181.692 297.672L168.776 291.807M181.692 297.672H125.854M181.692 297.672H237.529M125.854 297.672L111.647 291.807M125.854 297.672H70.0172M70.0172 297.672L54.5184 291.807M168.776 291.807H111.647M168.776 291.807H225.904M96.7665 285.666L111.647 291.807M96.7665 285.666L81.1646 279.226M96.7665 285.666H38.2852M111.647 291.807H54.5184M225.904 291.807H283.033M225.904 291.807L237.529 297.672M54.5184 291.807L38.2852 285.666M237.529 297.672H293.366M81.1646 279.226L64.7865 272.466M81.1646 279.226H21.2641M38.2852 285.666L21.2641 279.226M21.2641 279.226L3.39753 272.466M126.175 272.466L110.527 265.361M126.175 272.466H64.7865M126.175 272.466H187.564M64.7865 272.466L47.573 265.361M64.7865 272.466H3.39753M3.39753 272.466L-15.3803 265.361M110.527 265.361H47.573M110.527 265.361H173.48M29.4601 257.885L47.573 265.361M29.4601 257.885L10.3731 250.007M29.4601 257.885H-35.1403M47.573 265.361H-15.3803M173.48 265.361H236.434M173.48 265.361L187.564 272.466M-15.3803 265.361L-35.1403 257.885M-15.3803 265.361H-78.3343M187.564 272.466H248.953M10.3731 250.007L-9.76642 241.694M10.3731 250.007H-55.962M-35.1403 257.885L-55.962 250.007M-78.3343 265.361H-135.529M-55.962 250.007L-77.933 241.694M58.3993 241.694L39.0515 232.909M58.3993 241.694H-9.76642M58.3993 241.694H126.566M-9.76642 241.694L-31.0496 232.909M-9.76642 241.694H-77.933M-77.933 241.694L-101.151 232.909M-77.933 241.694H-135.529M39.0515 232.909H-31.0496M39.0515 232.909H109.153M-53.5769 223.611L-31.0496 232.909M-53.5769 223.611L-77.4596 213.754M-53.5769 223.611H-125.726M-31.0496 232.909H-101.151M109.153 232.909H179.254M109.153 232.909L126.566 241.694M-101.151 232.909L-125.726 223.611M-101.151 232.909H-135.529M126.566 241.694H194.732M-77.4596 213.754L-102.824 203.284M-77.4596 213.754H-135.529M-125.726 223.611H-135.529M-125.726 223.611L-135.529 219.902M-26.1983 203.284L-50.7332 192.144M-26.1983 203.284H-102.824M-26.1983 203.284H50.4278M-102.824 203.284L-129.813 192.144M-102.824 203.284H-135.529M-50.7332 192.144H-129.813M-50.7332 192.144H28.3464M-129.813 192.144L-135.529 189.785M-129.813 192.144H-135.529M28.3464 192.144H107.426M28.3464 192.144L50.4278 203.284M50.4278 203.284H127.054M-134.769 153.991H-47.2855M-134.769 153.991H-135.529M-134.769 153.991L-135.529 153.646M-47.2855 153.991H40.197M-47.2855 153.991L-76.2001 139.404M476.536 351.773L474.767 350.435L474.172 349.984L471.765 348.163M476.536 351.773H432.615M476.536 351.773H520.457M437.987 355.258L441.894 357.792L443.174 358.623M437.987 355.258L433.296 352.216L432.615 351.773M437.987 355.258H394.833M443.174 358.623H400.762M443.174 358.623L448.187 361.873M489.883 361.873H448.187M489.883 361.873L491.457 363.064L494.037 365.017M489.883 361.873H531.58M432.615 351.773L431.241 350.883L427.048 348.163M432.615 351.773H388.694M394.833 355.258L400.762 358.623M394.833 355.258L388.694 351.773M400.762 358.623L405.077 361.071L406.49 361.873M448.187 361.873H406.49M448.187 361.873L453.033 365.017M388.694 351.773L382.331 348.163M364.794 361.873L365.584 362.273L371.024 365.017M364.794 361.873H406.49M406.49 361.873L408.589 363.064L412.029 365.017M471.765 348.163H427.048M471.765 348.163H516.481M421.276 344.419L427.048 348.163M421.276 344.419L415.287 340.535M421.276 344.419H375.735M427.048 348.163H382.331M516.481 348.163H561.197M516.481 348.163L520.457 351.773M382.331 348.163L375.735 344.419M520.457 351.773H564.378M415.287 340.535L411.429 338.032L410.646 337.525L409.07 336.502M415.287 340.535H368.891M375.735 344.419L368.891 340.535M368.891 340.535L361.784 336.502M456.355 336.502L450.816 332.311M456.355 336.502H409.07M456.355 336.502H503.639M409.07 336.502L402.609 332.311M409.07 336.502H361.784M361.784 336.502L354.401 332.311M450.816 332.311H402.609M450.816 332.311H499.024M395.89 327.954L400.121 330.697L400.953 331.238L402.609 332.311M395.89 327.954L388.899 323.419M395.89 327.954H346.723M402.609 332.311H354.401M499.024 332.311H547.232M499.024 332.311L503.639 336.502M354.401 332.311L346.723 327.954M503.639 336.502H550.924M388.899 323.419L381.618 318.697M388.899 323.419H338.733M346.723 327.954L338.733 323.419M338.733 323.419L330.413 318.697M432.825 318.697L429.606 316.262L428.792 315.644L426.32 313.774M432.825 318.697H381.618M432.825 318.697H484.031M381.618 318.697L374.03 313.774M381.618 318.697H330.413M330.413 318.697L321.739 313.774M426.32 313.774H374.03M426.32 313.774H478.61M366.112 308.639L374.03 313.774M366.112 308.639L357.844 303.277M366.112 308.639H312.69M374.03 313.774H321.739M478.61 313.774H530.901M478.61 313.774L479.987 315.024L484.031 318.697M321.739 313.774L312.69 308.639M484.031 318.697H535.237M357.844 303.277L349.203 297.672M357.844 303.277H303.242M312.69 308.639L303.242 303.277M303.242 303.277L293.366 297.672M405.04 297.672L397.29 291.807M405.04 297.672H349.203M405.04 297.672H460.877M349.203 297.672L340.162 291.807M349.203 297.672H293.366M293.366 297.672L283.033 291.807M397.29 291.807H340.162M397.29 291.807H454.419M330.693 285.666L340.162 291.807M330.693 285.666L320.764 279.226M330.693 285.666H272.21M340.162 291.807H283.033M454.419 291.807H511.548M454.419 291.807L460.877 297.672M283.033 291.807L272.21 285.666M460.877 297.672H516.714M320.764 279.226L310.342 272.466M320.764 279.226H260.863M272.21 285.666L260.863 279.226M260.863 279.226L248.953 272.466M371.73 272.466L362.341 265.361M371.73 272.466H310.342M371.73 272.466H433.118M310.342 272.466L299.387 265.361M310.342 272.466H248.953M248.953 272.466L236.434 265.361M362.341 265.361H299.387M362.341 265.361H425.295M287.861 257.885L299.387 265.361M287.861 257.885L275.715 250.007M287.861 257.885H223.26M299.387 265.361H236.434M425.295 265.361H488.248M425.295 265.361L433.118 272.466M236.434 265.361L223.26 257.885M433.118 272.466H494.507M275.715 250.007L262.898 241.694M275.715 250.007H209.379M223.26 257.885L209.379 250.007M209.379 250.007L194.732 241.694M331.065 241.694L319.456 232.909M331.065 241.694H262.898M331.065 241.694H399.231M262.898 241.694L249.355 232.909M262.898 241.694H194.732M194.732 241.694L179.254 232.909M319.456 232.909H249.355M319.456 232.909H389.557M235.02 223.611L249.355 232.909M235.02 223.611L219.821 213.754M235.02 223.611H162.87M249.355 232.909H179.254M389.557 232.909H459.658M389.557 232.909L399.231 241.694M179.254 232.909L162.87 223.611M399.231 241.694H467.397M219.821 213.754L203.68 203.284M219.821 213.754H145.501M162.87 223.611L145.501 213.754M145.501 213.754L127.054 203.284M280.306 203.284L265.585 192.144M280.306 203.284H203.68M280.306 203.284H356.932M203.68 203.284L186.506 192.144M203.68 203.284H127.054M127.054 203.284L107.426 192.144M265.585 192.144H186.506M265.585 192.144H344.665M168.195 180.268L186.506 192.144M168.195 180.268L148.631 167.579M168.195 180.268H86.4985M186.506 192.144H107.426M344.665 192.144H423.744M344.665 192.144L356.932 203.284M107.426 192.144L86.4985 180.268M356.932 203.284H433.558M148.631 167.579L127.68 153.991M148.631 167.579H64.1399M86.4985 180.268L64.1399 167.579M64.1399 167.579L40.197 153.991M215.164 153.991L195.888 139.404M215.164 153.991H127.68M215.164 153.991H302.646M127.68 153.991L105.192 139.404M127.68 153.991H40.197M40.197 153.991L14.4957 139.404M195.888 139.404H105.192M195.888 139.404H286.584M80.9886 123.706L105.192 139.404M80.9886 123.706L54.8668 106.763M80.9886 123.706H-13.1648M105.192 139.404H14.4957M286.584 139.404H377.28M286.584 139.404L302.646 153.991M14.4957 139.404L-13.1648 123.706M14.4957 139.404H-76.2001M302.646 153.991H390.13M54.8668 106.763L26.5888 88.4214M54.8668 106.763H-43.0179M-13.1648 123.706L-43.0179 106.763M-76.2001 139.404H-135.529M-43.0179 106.763L-75.3363 88.4214M-43.0179 106.763H-135.529M128.514 88.4214L102.189 68.5011M128.514 88.4214H26.5888M128.514 88.4214H230.438M26.5888 88.4214L-4.12341 68.5011M26.5888 88.4214H-75.3363M-75.3363 88.4214L-110.436 68.5011M-75.3363 88.4214H-135.529M102.189 68.5011H-4.12341M102.189 68.5011H208.501M-37.5993 46.7888L-4.12341 68.5011M-37.5993 46.7888L-74.2282 23.0311M-37.5993 46.7888H-135.529M-4.12341 68.5011H-110.436M208.501 68.5011H314.813M208.501 68.5011L230.438 88.4214M-110.436 68.5011H-135.529M-110.436 68.5011L-135.529 54.2599M230.438 88.4214H332.364M-74.2282 23.0311L-114.478 -3.07567M-74.2282 23.0311H-135.529M7.5995 -3.07567L-30.4887 -31.8976M7.5995 -3.07567H-114.478M7.5995 -3.07567H129.676M-114.478 -3.07567L-135.529 -16.7297M-114.478 -3.07567H-135.529M-135.529 -31.8971L-30.4887 -31.8976H97.9368M97.9368 -31.8976H226.361M97.9368 -31.8976L129.676 -3.07567M129.676 -3.07567H251.753M652.221 351.773L652.024 351.329L651.828 350.883L651.63 350.435L651.433 349.984L650.831 348.621L650.63 348.163M652.221 351.773H608.299M652.221 351.773H696.141M610.602 355.258L612.276 357.792L612.824 358.623M610.602 355.258L609.172 353.094L608.299 351.773M610.602 355.258H567.448M612.824 358.623H570.412M612.824 358.623L614.442 361.071L614.973 361.873M656.67 361.873L656.845 362.273L657.54 363.85L658.054 365.017M656.67 361.873H614.973M656.67 361.873H698.366M608.299 351.773L608.006 351.329L607.71 350.883L607.415 350.435L607.117 349.984L605.914 348.163M608.299 351.773H564.378M567.448 355.258L569.681 357.792L570.412 358.623M567.448 355.258L564.378 351.773M570.412 358.623L571.857 360.262L572.924 361.473L573.276 361.873M614.973 361.873L615.236 362.273L615.759 363.064L616.279 363.85L616.537 364.241L617.05 365.017M614.973 361.873H573.276M564.378 351.773L562.003 349.078L561.197 348.163M531.58 361.873L534.186 364.241L535.041 365.017M531.58 361.873H573.276M573.276 361.873L575.704 364.63L576.046 365.017M650.63 348.163H605.914M650.63 348.163H695.346M603.44 344.419L605.914 348.163M603.44 344.419L600.873 340.535M603.44 344.419H557.899M605.914 348.163H561.197M695.346 348.163H740.062M695.346 348.163L696.141 351.773M561.197 348.163L557.899 344.419M696.141 351.773H740.062M600.873 340.535L600.216 339.541L599.219 338.032L598.208 336.502M600.873 340.535H554.476M557.899 344.419L557.478 343.942L554.476 340.535M554.476 340.535L554.04 340.039L553.601 339.541L553.16 339.04L550.924 336.502M645.493 336.502L643.647 332.311M645.493 336.502H598.208M645.493 336.502H692.778M598.208 336.502L595.439 332.311M598.208 336.502H550.924M550.924 336.502L548.168 333.374L547.701 332.844L547.232 332.311M643.647 332.311H595.439M643.647 332.311H691.855M592.56 327.954L592.192 327.397L591.822 326.837L591.451 326.274L589.564 323.419M592.56 327.954L594.014 330.154L594.373 330.697L594.73 331.238L595.439 332.311M592.56 327.954H543.393M595.439 332.311H547.232M691.855 332.311H740.062M691.855 332.311L692.778 336.502M547.232 332.311L543.393 327.954M692.778 336.502H740.062M589.564 323.419L586.84 319.298L586.444 318.697M589.564 323.419H539.398M543.393 327.954L542.409 326.837L539.398 323.419M539.398 323.419L537.857 321.671L535.237 318.697M637.65 318.697L636.577 316.262L636.306 315.644L635.481 313.774M637.65 318.697H586.444M637.65 318.697H688.856M586.444 318.697L583.191 313.774M586.444 318.697H535.237M535.237 318.697L530.901 313.774M635.481 313.774H583.191M635.481 313.774H687.772M579.798 308.639L583.191 313.774M579.798 308.639L576.255 303.277M579.798 308.639H526.376M583.191 313.774H530.901M687.772 313.774H740.062M687.772 313.774L688.048 315.024L688.589 317.486L688.856 318.697M530.901 313.774L526.376 308.639M688.856 318.697H740.062M576.255 303.277L573.493 299.096L572.551 297.672M576.255 303.277H521.652M526.376 308.639L521.652 303.277M521.652 303.277L519.211 300.505L516.714 297.672M628.388 297.672L625.805 291.807M628.388 297.672H572.551M628.388 297.672H684.225M572.551 297.672L568.676 291.807M572.551 297.672H516.714M516.714 297.672L511.548 291.807M625.805 291.807H568.676M625.805 291.807H682.934M564.618 285.666L565.651 287.228L568.676 291.807M564.618 285.666L560.363 279.226M564.618 285.666H506.136M568.676 291.807H511.548M682.934 291.807H740.062M682.934 291.807L684.225 297.672M511.548 291.807L506.136 285.666M684.225 297.672H740.062M560.363 279.226L555.896 272.466M560.363 279.226H500.463M506.136 285.666L500.463 279.226M500.463 279.226L494.507 272.466M617.284 272.466L614.155 265.361M617.284 272.466H555.896M617.284 272.466H678.673M555.896 272.466L551.202 265.361M555.896 272.466H494.507M494.507 272.466L488.248 265.361M614.155 265.361H551.202M614.155 265.361H677.109M546.261 257.885L551.202 265.361M546.261 257.885L541.056 250.007M546.261 257.885H481.662M551.202 265.361H488.248M677.109 265.361H740.062M677.109 265.361L678.483 271.597L678.673 272.466M488.248 265.361L481.662 257.885M678.673 272.466H740.062M541.056 250.007L535.564 241.694M541.056 250.007H474.721M481.662 257.885L476.491 252.015L474.721 250.007M474.721 250.007L467.397 241.694M603.73 241.694L599.86 232.909M603.73 241.694H535.564M603.73 241.694H671.896M535.564 241.694L529.759 232.909M535.564 241.694H467.397M467.397 241.694L459.658 232.909M599.86 232.909H529.759M599.86 232.909H669.961M523.615 223.611L529.759 232.909M523.615 223.611L517.102 213.754M523.615 223.611H451.467M529.759 232.909H459.658M669.961 232.909H740.062M669.961 232.909L671.896 241.694M459.658 232.909L451.467 223.611M671.896 241.694H740.062M517.102 213.754L510.184 203.284M517.102 213.754H442.782M451.467 223.611L442.782 213.754M442.782 213.754L433.558 203.284M586.81 203.284L581.903 192.144M586.81 203.284H510.184M586.81 203.284H663.436M510.184 203.284L502.824 192.144M510.184 203.284H433.558M433.558 203.284L423.744 192.144M581.903 192.144H502.824M581.903 192.144H660.983M494.976 180.268L502.824 192.144M494.976 180.268L486.592 167.579M494.976 180.268H413.281M502.824 192.144H423.744M660.983 192.144H740.062M660.983 192.144L663.436 203.284M423.744 192.144L413.281 180.268M663.436 203.284H740.062M486.592 167.579L477.613 153.991M486.592 167.579H402.102M413.281 180.268L402.102 167.579M402.102 167.579L390.13 153.991M565.097 153.991L558.671 139.404M565.097 153.991H477.613M565.097 153.991H652.579M477.613 153.991L467.975 139.404M477.613 153.991H390.13M390.13 153.991L377.28 139.404M558.671 139.404H467.975M558.671 139.404H649.367M457.602 123.706L467.975 139.404M457.602 123.706L446.407 106.763M457.602 123.706H363.449M467.975 139.404H377.28M649.367 139.404H740.062M649.367 139.404L652.579 153.991M377.28 139.404L363.449 123.706M652.579 153.991H740.062M446.407 106.763L434.288 88.4214M446.407 106.763H348.522M363.449 123.706L348.522 106.763M348.522 106.763L332.364 88.4214M536.213 88.4214L527.438 68.5011M536.213 88.4214H434.288M536.213 88.4214H638.137M434.288 88.4214L421.126 68.5011M434.288 88.4214H332.364M332.364 88.4214L314.813 68.5011M527.438 68.5011H421.126M527.438 68.5011H633.75M406.779 46.7888L421.126 68.5011M406.779 46.7888L391.081 23.0311M406.779 46.7888H295.684M421.126 68.5011H314.813M633.75 68.5011H740.062M633.75 68.5011L638.137 88.4214M314.813 68.5011L295.684 46.7888M638.137 88.4214H740.062M391.081 23.0311L373.831 -3.07567M391.081 23.0311H274.753M295.684 46.7888L274.753 23.0311M274.753 23.0311L251.753 -3.07567M495.908 -3.07567L483.212 -31.8976M495.908 -3.07567H373.831M495.908 -3.07567H617.985M373.831 -3.07567L354.787 -31.8976M373.831 -3.07567H251.753M251.753 -3.07567L226.361 -31.8976M354.787 -31.8976H483.212M354.787 -31.8976H226.361M483.212 -31.8976H611.637M611.637 -31.8976H740.062M611.637 -31.8976L617.985 -3.07567M617.985 -3.07567H740.062M827.904 351.773L828.1 351.329L828.296 350.883L828.494 350.435L828.692 349.984L829.092 349.078L829.293 348.621L829.495 348.163M827.904 351.773H783.983M827.904 351.773H871.826M783.216 355.258L782.475 358.623M783.216 355.258L783.983 351.773M783.216 355.258H740.062M782.475 358.623L782.384 359.035L782.293 359.446L782.204 359.855L781.759 361.873M782.475 358.623H740.062M823.455 361.873L823.28 362.273L822.585 363.85L822.071 365.017M823.455 361.873H781.759M823.455 361.873H865.152M783.983 351.773L784.082 351.329L784.179 350.883L784.279 350.435L784.779 348.163M783.983 351.773H740.062M740.062 355.258V358.623M740.062 355.258V351.773M740.062 358.623V361.873M781.759 361.873H740.062M781.759 361.873L781.497 363.064L781.409 363.458L781.066 365.017M740.062 351.773V348.163M698.366 361.873L698.628 363.064L698.715 363.458L698.801 363.85L698.888 364.241L698.972 364.63L699.058 365.017M698.366 361.873H740.062M740.062 361.873V365.017M829.495 348.163H784.779M829.495 348.163H874.211M785.603 344.419L785.709 343.942L785.814 343.462L786.459 340.535M785.603 344.419L784.779 348.163M785.603 344.419H740.062M784.779 348.163H740.062M874.211 348.163H918.927M874.211 348.163L873.607 349.078L873.306 349.532L873.008 349.984L872.71 350.435L872.414 350.883L872.119 351.329L871.826 351.773M740.062 348.163V344.419M871.826 351.773H915.747M786.459 340.535L787.347 336.502M786.459 340.535H740.062M740.062 344.419V340.535M740.062 340.535V336.502M834.632 336.502L836.478 332.311M834.632 336.502H787.347M834.632 336.502H881.916M787.347 336.502L788.27 332.311M787.347 336.502H740.062M740.062 336.502V332.311M836.478 332.311H788.27M836.478 332.311H884.685M789.23 327.954L788.27 332.311M789.23 327.954L790.228 323.419M789.23 327.954H740.062M788.27 332.311H740.062M884.685 332.311H932.893M884.685 332.311L881.916 336.502M740.062 332.311V327.954M881.916 336.502H929.201M790.228 323.419L790.613 321.671L791.004 319.896L791.269 318.697M790.228 323.419H740.062M740.062 327.954V323.419M740.062 323.419V318.697M842.475 318.697L843.548 316.262L843.819 315.644L844.644 313.774M842.475 318.697H791.269M842.475 318.697H893.681M791.269 318.697L791.535 317.486L792.077 315.024L792.352 313.774M791.269 318.697H740.062M740.062 318.697V313.774M844.644 313.774H792.352M844.644 313.774H896.934M793.483 308.639L793.34 309.293L792.352 313.774M793.483 308.639L794.665 303.277M793.483 308.639H740.062M792.352 313.774H740.062M896.934 313.774H949.224M896.934 313.774L893.681 318.697M740.062 313.774V308.639M893.681 318.697H944.888M794.665 303.277L795.9 297.672M794.665 303.277H740.062M740.062 308.639V303.277M740.062 303.277V297.672M851.737 297.672L854.32 291.807M851.737 297.672H795.9M851.737 297.672H907.574M795.9 297.672L797.191 291.807M795.9 297.672H740.062M740.062 297.672V291.807M854.32 291.807H797.191M854.32 291.807H911.448M798.544 285.666L797.191 291.807M798.544 285.666L799.962 279.226M798.544 285.666H740.062M797.191 291.807H740.062M911.448 291.807H968.577M911.448 291.807L907.574 297.672M740.062 291.807V285.666M907.574 297.672H963.411M799.962 279.226L801.451 272.466M799.962 279.226H740.062M740.062 285.666V279.226M740.062 279.226V272.466M862.84 272.466L865.97 265.361M862.84 272.466H801.451M862.84 272.466H924.228M801.451 272.466L803.016 265.361M801.451 272.466H740.062M740.062 272.466V265.361M865.97 265.361H803.016M865.97 265.361H928.923M804.663 257.885L803.016 265.361M804.663 257.885L806.397 250.007M804.663 257.885H740.062M803.016 265.361H740.062M928.923 265.361H991.877M928.923 265.361L924.228 272.466M740.062 265.361V257.885M924.228 272.466H985.617M806.397 250.007L808.229 241.694M806.397 250.007H740.062M740.062 257.885V250.007M740.062 250.007V241.694M876.395 241.694L880.265 232.909M876.395 241.694H808.229M876.395 241.694H944.561M808.229 241.694L810.163 232.909M808.229 241.694H740.062M740.062 241.694V232.909M880.265 232.909H810.163M880.265 232.909H950.366M812.211 223.611L810.163 232.909M812.211 223.611L814.383 213.754M812.211 223.611H740.062M810.163 232.909H740.062M950.366 232.909H1020.47M950.366 232.909L944.561 241.694M740.062 232.909V223.611M944.561 241.694H1012.73M814.383 213.754L816.688 203.284M814.383 213.754H740.062M740.062 223.611V213.754M740.062 213.754V203.284M893.315 203.284L898.221 192.144M893.315 203.284H816.688M893.315 203.284H969.941M816.688 203.284L819.142 192.144M816.688 203.284H740.062M740.062 203.284V192.144M898.221 192.144H819.142M898.221 192.144H977.301M821.758 180.268L819.142 192.144M821.758 180.268L824.552 167.579M821.758 180.268H740.062M819.142 192.144H740.062M977.301 192.144H1056.38M977.301 192.144L969.941 203.284M740.062 192.144V180.268M969.941 203.284H1046.57M824.552 167.579L827.546 153.991M824.552 167.579H740.062M740.062 180.268V167.579M740.062 167.579V153.991M915.028 153.991L921.454 139.404M915.028 153.991H827.546M915.028 153.991H1002.51M827.546 153.991L830.758 139.404M827.546 153.991H740.062M740.062 153.991V139.404M921.454 139.404H830.758M921.454 139.404H1012.15M834.216 123.706L830.758 139.404M834.216 123.706L837.947 106.763M834.216 123.706H740.062M830.758 139.404H740.062M1012.15 139.404H1102.85M1012.15 139.404L1002.51 153.991M740.062 139.404V123.706M1002.51 153.991H1090M837.947 106.763L841.988 88.4214M837.947 106.763H740.062M740.062 123.706V106.763M740.062 106.763V88.4214M943.912 88.4214L952.687 68.5011M943.912 88.4214H841.988M943.912 88.4214H1045.84M841.988 88.4214L846.375 68.5011M841.988 88.4214H740.062M740.062 88.4214V68.5011M952.687 68.5011H846.375M952.687 68.5011H1059M851.157 46.7888L846.375 68.5011M851.157 46.7888L856.389 23.0311M851.157 46.7888H740.062M846.375 68.5011H740.062M1059 68.5011H1165.31M1059 68.5011L1045.84 88.4214M740.062 68.5011V46.7888M1045.84 88.4214H1147.76M856.389 23.0311L862.14 -3.07567M856.389 23.0311H740.062M740.062 46.7888V23.0311M740.062 23.0311V-3.07567M984.216 -3.07567L996.912 -31.8976M984.216 -3.07567H862.14M984.216 -3.07567H1106.29M862.14 -3.07567L868.488 -31.8976M862.14 -3.07567H740.062M740.062 -3.07567V-31.8976M868.488 -31.8976H996.912M868.488 -31.8976H740.062M996.912 -31.8976H1125.34M1125.34 -31.8976H1253.76M1125.34 -31.8976L1106.29 -3.07567M1106.29 -3.07567H1228.37M1003.59 351.773L1005.95 349.984L1008.36 348.163M1003.59 351.773H959.668M1003.59 351.773H1047.51M955.831 355.258L952.125 358.623M955.831 355.258L959.668 351.773M955.831 355.258H912.677M952.125 358.623H909.713M952.125 358.623L949.429 361.071L948.545 361.873M990.242 361.873H948.545M990.242 361.873L988.667 363.064L986.088 365.017M990.242 361.873H1031.94M959.668 351.773L963.644 348.163M959.668 351.773H915.747M912.677 355.258L909.713 358.623M912.677 355.258L915.747 351.773M909.713 358.623L908.268 360.262L907.201 361.473L906.849 361.873M948.545 361.873H906.849M948.545 361.873L945.938 364.241L945.084 365.017M915.747 351.773L918.122 349.078L918.927 348.163M865.152 361.873L864.889 362.273L864.365 363.064L863.588 364.241L863.075 365.017M865.152 361.873H906.849M906.849 361.873L906.498 362.273L905.799 363.064L904.08 365.017M1008.36 348.163H963.644M1008.36 348.163H1053.08M967.767 344.419L967.243 344.894L966.722 345.368L964.661 347.24L963.644 348.163M967.767 344.419L970.96 341.52L972.045 340.535M967.767 344.419H922.225M963.644 348.163H918.927M1053.08 348.163H1097.79M1053.08 348.163L1048.88 350.883L1047.51 351.773M918.927 348.163L922.225 344.419M1047.51 351.773H1091.43M972.045 340.535L972.59 340.039L973.139 339.541L974.8 338.032L975.36 337.525L976.486 336.502M972.045 340.535H925.648M922.225 344.419L922.647 343.942L925.648 340.535M925.648 340.535L926.084 340.039L926.524 339.541L926.965 339.04L929.201 336.502M1023.77 336.502L1029.31 332.311M1023.77 336.502H976.486M1023.77 336.502H1071.05M976.486 336.502L981.101 332.311M976.486 336.502H929.201M929.201 336.502L932.893 332.311M1029.31 332.311H981.101M1029.31 332.311H1077.52M985.899 327.954L981.101 332.311M985.899 327.954L990.893 323.419M985.899 327.954H936.732M981.101 332.311H932.893M1077.52 332.311H1125.72M1077.52 332.311L1071.05 336.502M932.893 332.311L936.732 327.954M1071.05 336.502H1118.34M990.893 323.419L996.093 318.697M990.893 323.419H940.727M936.732 327.954L937.716 326.837L940.727 323.419M940.727 323.419L942.267 321.671L943.832 319.896L944.888 318.697M1047.3 318.697L1050.52 316.262L1053.8 313.774M1047.3 318.697H996.093M1047.3 318.697H1098.51M996.093 318.697L1001.51 313.774M996.093 318.697H944.888M944.888 318.697L949.224 313.774M1053.8 313.774H1001.51M1053.8 313.774H1106.09M1007.17 308.639L1001.51 313.774M1007.17 308.639L1013.08 303.277M1007.17 308.639H953.749M1001.51 313.774H949.224M1106.09 313.774H1158.39M1106.09 313.774L1098.51 318.697M949.224 313.774L953.749 308.639M1098.51 318.697H1149.71M1013.08 303.277L1014.59 301.899L1019.25 297.672M1013.08 303.277H958.473M953.749 308.639L958.473 303.277M958.473 303.277L959.078 302.59L960.914 300.505L963.411 297.672M1075.08 297.672L1082.83 291.807M1075.08 297.672H1019.25M1075.08 297.672H1130.92M1019.25 297.672L1025.71 291.807M1019.25 297.672H963.411M963.411 297.672L968.577 291.807M1082.83 291.807H1025.71M1082.83 291.807H1139.96M1032.47 285.666L1028.2 289.538L1025.71 291.807M1032.47 285.666L1039.56 279.226M1032.47 285.666H973.988M1025.71 291.807H968.577M1139.96 291.807H1197.09M1139.96 291.807L1130.92 297.672M968.577 291.807L973.988 285.666M1130.92 297.672H1186.76M1039.56 279.226L1047.01 272.466M1039.56 279.226H979.661M973.988 285.666L979.661 279.226M979.661 279.226L985.617 272.466M1108.4 272.466L1117.78 265.361M1108.4 272.466H1047.01M1108.4 272.466H1169.78M1047.01 272.466L1054.83 265.361M1047.01 272.466H985.617M985.617 272.466L991.877 265.361M1117.78 265.361H1054.83M1117.78 265.361H1180.74M1063.06 257.885L1054.83 265.361M1063.06 257.885L1071.74 250.007M1063.06 257.885H998.463M1054.83 265.361H991.877M1180.74 265.361H1243.69M1180.74 265.361L1169.78 272.466M991.877 265.361L998.463 257.885M1169.78 272.466H1231.17M1071.74 250.007L1080.89 241.694M1071.74 250.007H1005.4M998.463 257.885L1005.4 250.007M1005.4 250.007L1012.73 241.694M1149.06 241.694L1160.67 232.909M1149.06 241.694H1080.89M1149.06 241.694H1217.23M1080.89 241.694L1090.57 232.909M1080.89 241.694H1012.73M1012.73 241.694L1020.47 232.909M1160.67 232.909H1090.57M1160.67 232.909H1230.77M1100.81 223.611L1090.57 232.909M1100.81 223.611L1111.66 213.754M1100.81 223.611H1028.66M1090.57 232.909H1020.47M1230.77 232.909H1300.87M1230.77 232.909L1217.23 241.694M1020.47 232.909L1028.66 223.611M1217.23 241.694H1285.39M1111.66 213.754L1123.19 203.284M1111.66 213.754H1037.34M1028.66 223.611L1037.34 213.754M1037.34 213.754L1046.57 203.284M1199.82 203.284L1214.54 192.144M1199.82 203.284H1123.19M1199.82 203.284H1276.44M1123.19 203.284L1135.46 192.144M1123.19 203.284H1046.57M1046.57 203.284L1056.38 192.144M1214.54 192.144H1135.46M1214.54 192.144H1293.62M1148.54 180.268L1135.46 192.144M1148.54 180.268L1162.51 167.579M1148.54 180.268H1066.84M1135.46 192.144H1056.38M1293.62 192.144H1372.7M1293.62 192.144L1276.44 203.284M1056.38 192.144L1066.84 180.268M1276.44 203.284H1353.07M1162.51 167.579L1177.48 153.991M1162.51 167.579H1078.02M1066.84 180.268L1078.02 167.579M1078.02 167.579L1090 153.991M1264.96 153.991L1284.24 139.404M1264.96 153.991H1177.48M1264.96 153.991H1352.44M1177.48 153.991L1193.54 139.404M1177.48 153.991H1090M1090 153.991L1102.85 139.404M1284.24 139.404H1193.54M1284.24 139.404H1374.93M1210.83 123.706L1193.54 139.404M1210.83 123.706L1229.49 106.763M1210.83 123.706H1116.68M1193.54 139.404H1102.85M1374.93 139.404H1465.63M1374.93 139.404L1352.44 153.991M1102.85 139.404L1116.68 123.706M1352.44 153.991H1439.93M1229.49 106.763L1249.69 88.4214M1229.49 106.763H1131.6M1116.68 123.706L1131.6 106.763M1131.6 106.763L1147.76 88.4214M1351.61 88.4214L1377.94 68.5011M1351.61 88.4214H1249.69M1351.61 88.4214H1453.54M1249.69 88.4214L1271.62 68.5011M1249.69 88.4214H1147.76M1147.76 88.4214L1165.31 68.5011M1377.94 68.5011H1271.62M1377.94 68.5011H1484.25M1295.53 46.7888L1271.62 68.5011M1295.53 46.7888L1321.7 23.0311M1295.53 46.7888H1184.44M1271.62 68.5011H1165.31M1484.25 68.5011H1590.56M1484.25 68.5011L1453.54 88.4214M1165.31 68.5011L1184.44 46.7888M1453.54 88.4214H1555.46M1321.7 23.0311L1350.45 -3.07567M1321.7 23.0311H1205.37M1184.44 46.7888L1205.37 23.0311M1205.37 23.0311L1228.37 -3.07567M1472.53 -3.07567L1510.61 -31.8976M1472.53 -3.07567H1350.45M1472.53 -3.07567H1594.6M1350.45 -3.07567L1382.19 -31.8976M1350.45 -3.07567H1228.37M1228.37 -3.07567L1253.76 -31.8976M1615.65 -31.8971L1510.61 -31.8976H1382.19M1382.19 -31.8976H1253.76M1594.6 -3.07567L1615.65 -16.7297M1594.6 -3.07567H1615.65M1179.27 351.773L1187.23 348.163M1179.27 351.773H1135.35M1179.27 351.773H1223.19M1128.45 355.258L1121.78 358.623M1128.45 355.258L1135.35 351.773M1128.45 355.258H1085.29M1121.78 358.623H1079.36M1121.78 358.623L1115.33 361.873M1157.03 361.873H1115.33M1157.03 361.873L1154.4 363.064L1150.1 365.017M1157.03 361.873H1198.72M1135.35 351.773L1142.51 348.163M1135.35 351.773H1091.43M1085.29 355.258L1079.36 358.623M1085.29 355.258L1091.43 351.773M1079.36 358.623L1075.05 361.071L1073.63 361.873M1115.33 361.873L1114.54 362.273L1109.1 365.017M1115.33 361.873H1073.63M1091.43 351.773L1097.79 348.163M1031.94 361.873L1027.09 365.017M1031.94 361.873H1073.63M1073.63 361.873L1071.54 363.064L1068.1 365.017M1187.23 348.163H1142.51M1187.23 348.163H1231.94M1149.93 344.419L1142.51 348.163M1149.93 344.419L1157.63 340.535M1149.93 344.419H1104.39M1142.51 348.163H1097.79M1231.94 348.163H1276.66M1231.94 348.163L1223.19 351.773M1097.79 348.163L1104.39 344.419M1223.19 351.773H1267.12M1157.63 340.535L1159.6 339.541L1165.63 336.502M1157.63 340.535H1111.23M1104.39 344.419L1111.23 340.535M1111.23 340.535L1118.34 336.502M1212.91 336.502L1214.04 335.986L1222.14 332.311M1212.91 336.502H1165.63M1212.91 336.502H1260.19M1165.63 336.502L1173.93 332.311M1165.63 336.502H1118.34M1118.34 336.502L1119.25 335.986L1125.72 332.311M1222.14 332.311H1173.93M1222.14 332.311H1270.35M1182.57 327.954L1173.93 332.311M1182.57 327.954L1191.56 323.419M1182.57 327.954H1133.4M1173.93 332.311H1125.72M1270.35 332.311H1318.55M1270.35 332.311L1260.19 336.502M1125.72 332.311L1133.4 327.954M1260.19 336.502H1307.48M1191.56 323.419L1200.92 318.697M1191.56 323.419H1141.39M1133.4 327.954L1141.39 323.419M1141.39 323.419L1149.71 318.697M1252.12 318.697L1262.97 313.774M1252.12 318.697H1200.92M1252.12 318.697H1303.33M1200.92 318.697L1210.68 313.774M1200.92 318.697H1149.71M1149.71 318.697L1158.39 313.774M1262.97 313.774H1210.68M1262.97 313.774H1315.26M1220.86 308.639L1210.68 313.774M1220.86 308.639L1231.49 303.277M1220.86 308.639H1167.43M1210.68 313.774H1158.39M1315.26 313.774H1367.55M1315.26 313.774L1303.33 318.697M1158.39 313.774L1167.43 308.639M1303.33 318.697H1354.54M1231.49 303.277L1242.6 297.672M1231.49 303.277H1176.88M1167.43 308.639L1176.88 303.277M1176.88 303.277L1186.76 297.672M1298.43 297.672L1311.35 291.807M1298.43 297.672H1242.6M1298.43 297.672H1354.27M1242.6 297.672L1254.22 291.807M1242.6 297.672H1186.76M1186.76 297.672L1197.09 291.807M1311.35 291.807H1254.22M1311.35 291.807H1368.48M1266.4 285.666L1254.22 291.807M1266.4 285.666L1279.16 279.226M1266.4 285.666H1207.91M1254.22 291.807H1197.09M1368.48 291.807H1425.61M1368.48 291.807L1354.27 297.672M1197.09 291.807L1207.91 285.666M1354.27 297.672H1410.11M1279.16 279.226L1292.56 272.466M1279.16 279.226H1219.26M1207.91 285.666L1219.26 279.226M1219.26 279.226L1231.17 272.466M1353.95 272.466L1369.6 265.361M1353.95 272.466H1292.56M1353.95 272.466H1415.34M1292.56 272.466L1306.64 265.361M1292.56 272.466H1231.17M1231.17 272.466L1243.69 265.361M1369.6 265.361H1306.64M1369.6 265.361H1432.55M1321.46 257.885L1306.64 265.361M1321.46 257.885L1337.08 250.007M1321.46 257.885H1256.86M1306.64 265.361H1243.69M1432.55 265.361H1495.51M1432.55 265.361L1415.34 272.466M1243.69 265.361L1256.86 257.885M1415.34 272.466H1476.73M1337.08 250.007L1353.56 241.694M1337.08 250.007H1270.75M1256.86 257.885L1270.75 250.007M1270.75 250.007L1285.39 241.694M1421.73 241.694L1441.07 232.909M1421.73 241.694H1353.56M1421.73 241.694H1489.89M1353.56 241.694L1370.97 232.909M1353.56 241.694H1285.39M1285.39 241.694L1300.87 232.909M1441.07 232.909H1370.97M1441.07 232.909H1511.17M1389.4 223.611L1370.97 232.909M1389.4 223.611L1408.94 213.754M1389.4 223.611H1317.25M1370.97 232.909H1300.87M1511.17 232.909H1581.28M1511.17 232.909L1489.89 241.694M1300.87 232.909L1317.25 223.611M1489.89 241.694H1558.06M1408.94 213.754L1429.7 203.284M1408.94 213.754H1334.62M1317.25 223.611L1334.62 213.754M1334.62 213.754L1353.07 203.284M1506.32 203.284L1530.86 192.144M1506.32 203.284H1429.7M1506.32 203.284H1582.95M1429.7 203.284L1451.78 192.144M1429.7 203.284H1353.07M1353.07 203.284L1372.7 192.144M1530.86 192.144H1451.78M1530.86 192.144H1609.94M1475.32 180.268L1451.78 192.144M1475.32 180.268L1500.47 167.579M1475.32 180.268H1393.63M1451.78 192.144H1372.7M1609.94 192.144L1582.95 203.284M1609.94 192.144H1615.65M1609.94 192.144L1615.65 189.785M1372.7 192.144L1393.63 180.268M1582.95 203.284H1615.65M1500.47 167.579L1527.41 153.991M1500.47 167.579H1415.98M1393.63 180.268L1415.98 167.579M1415.98 167.579L1439.93 153.991M1614.89 153.991H1527.41M1614.89 153.991H1615.65M1614.89 153.991L1615.65 153.646M1527.41 153.991L1556.32 139.404M1527.41 153.991H1439.93M1439.93 153.991L1465.63 139.404M1587.44 123.706L1556.32 139.404M1587.44 123.706H1493.29M1587.44 123.706H1615.65M1587.44 123.706L1615.65 109.474M1556.32 139.404H1465.63M1556.32 139.404H1615.65M1465.63 139.404L1493.29 123.706M1493.29 123.706L1523.14 106.763M1523.14 106.763L1555.46 88.4214M1523.14 106.763H1615.65M1555.46 88.4214L1590.56 68.5011M1555.46 88.4214H1615.65M1590.56 68.5011H1615.65M1590.56 68.5011L1615.65 54.2599M1354.96 351.773L1366.09 348.163M1354.96 351.773H1311.04M1354.96 351.773H1398.88M1301.06 355.258L1291.43 358.623M1301.06 355.258L1311.04 351.773M1301.06 355.258H1257.91M1291.43 358.623H1249.01M1291.43 358.623L1282.12 361.873M1323.81 361.873H1282.12M1323.81 361.873L1314.12 365.017M1323.81 361.873H1365.51M1311.04 351.773L1321.37 348.163M1311.04 351.773H1267.12M1257.91 355.258L1249.01 358.623M1257.91 355.258L1267.12 351.773M1249.01 358.623L1240.42 361.873M1282.12 361.873L1280.98 362.273L1273.12 365.017M1282.12 361.873H1240.42M1267.12 351.773L1276.66 348.163M1198.72 361.873L1191.11 365.017M1198.72 361.873H1240.42M1240.42 361.873L1239.37 362.273L1232.11 365.017M1366.09 348.163H1321.37M1366.09 348.163H1410.81M1332.09 344.419L1321.37 348.163M1332.09 344.419L1343.22 340.535M1332.09 344.419H1286.55M1321.37 348.163H1276.66M1410.81 348.163H1455.52M1410.81 348.163L1398.88 351.773M1276.66 348.163L1286.55 344.419M1398.88 351.773H1442.8M1343.22 340.535L1354.76 336.502M1343.22 340.535H1296.82M1286.55 344.419L1287.82 343.942L1296.82 340.535M1296.82 340.535L1307.48 336.502M1402.05 336.502L1414.97 332.311M1402.05 336.502H1354.76M1402.05 336.502H1449.33M1354.76 336.502L1366.76 332.311M1354.76 336.502H1307.48M1307.48 336.502L1318.55 332.311M1414.97 332.311H1366.76M1414.97 332.311H1463.18M1379.24 327.954L1366.76 332.311M1379.24 327.954L1392.22 323.419M1379.24 327.954H1330.07M1366.76 332.311H1318.55M1463.18 332.311H1511.39M1463.18 332.311L1449.33 336.502M1318.55 332.311L1330.07 327.954M1449.33 336.502H1496.62M1392.22 323.419L1405.74 318.697M1392.22 323.419H1342.06M1330.07 327.954L1342.06 323.419M1342.06 323.419L1354.54 318.697M1456.95 318.697L1472.13 313.774M1456.95 318.697H1405.74M1456.95 318.697H1508.16M1405.74 318.697L1419.84 313.774M1405.74 318.697H1354.54M1354.54 318.697L1367.55 313.774M1472.13 313.774H1419.84M1472.13 313.774H1524.42M1434.54 308.639L1419.84 313.774M1434.54 308.639L1449.9 303.277M1434.54 308.639H1381.12M1419.84 313.774H1367.55M1524.42 313.774H1576.71M1524.42 313.774L1508.16 318.697M1367.55 313.774L1381.12 308.639M1508.16 318.697H1559.36M1449.9 303.277L1465.94 297.672M1449.9 303.277H1395.29M1381.12 308.639L1395.29 303.277M1395.29 303.277L1410.11 297.672M1521.78 297.672L1539.86 291.807M1521.78 297.672H1465.94M1521.78 297.672H1577.62M1465.94 297.672L1482.74 291.807M1465.94 297.672H1410.11M1410.11 297.672L1425.61 291.807M1539.86 291.807H1482.74M1500.32 285.666L1482.74 291.807M1500.32 285.666L1518.76 279.226M1500.32 285.666H1441.84M1482.74 291.807H1425.61M1425.61 291.807L1441.84 285.666M1577.62 297.672H1615.65M1518.76 279.226L1538.12 272.466M1518.76 279.226H1458.86M1441.84 285.666L1458.86 279.226M1458.86 279.226L1476.73 272.466M1599.51 272.466H1538.12M1599.51 272.466H1615.65M1599.51 272.466L1615.65 267.229M1538.12 272.466L1558.46 265.361M1538.12 272.466H1476.73M1476.73 272.466L1495.51 265.361M1579.87 257.885L1558.46 265.361M1579.87 257.885L1602.42 250.007M1579.87 257.885H1515.27M1579.87 257.885H1615.65M1558.46 265.361H1495.51M1558.46 265.361H1615.65M1495.51 265.361L1515.27 257.885M1615.83 267.171L1615.65 267.229M1602.42 250.007H1536.09M1602.42 250.007H1615.65M1602.42 250.007L1615.65 245.386M1515.27 257.885L1536.09 250.007M1536.09 250.007L1558.06 241.694M1558.06 241.694L1581.28 232.909M1558.06 241.694H1615.65M1605.85 223.611L1581.28 232.909M1605.85 223.611H1615.65M1605.85 223.611L1615.65 219.902M1581.28 232.909H1615.65M1530.64 351.773L1544.96 348.163M1530.64 351.773H1486.72M1530.64 351.773H1574.56M1473.67 355.258L1461.08 358.623M1473.67 355.258L1486.72 351.773M1473.67 355.258H1430.52M1461.08 358.623H1418.66M1461.08 358.623L1448.9 361.873M1490.6 361.873H1448.9M1490.6 361.873L1478.14 365.017M1490.6 361.873H1532.3M1486.72 351.773L1500.24 348.163M1486.72 351.773H1442.8M1430.52 355.258L1418.66 358.623M1430.52 355.258L1442.8 351.773M1418.66 358.623L1407.21 361.873M1448.9 361.873H1407.21M1448.9 361.873L1437.13 365.017M1442.8 351.773L1455.52 348.163M1365.51 361.873L1355.13 365.017M1365.51 361.873H1407.21M1407.21 361.873L1396.13 365.017M1544.96 348.163H1500.24M1544.96 348.163H1589.67M1514.26 344.419L1500.24 348.163M1514.26 344.419L1528.8 340.535M1514.26 344.419H1468.72M1500.24 348.163H1455.52M1589.67 348.163L1574.56 351.773M1589.67 348.163H1615.65M1455.52 348.163L1468.72 344.419M1574.56 351.773H1615.65M1528.8 340.535L1543.9 336.502M1528.8 340.535H1482.4M1468.72 344.419L1482.4 340.535M1482.4 340.535L1496.62 336.502M1591.19 336.502L1607.8 332.311M1591.19 336.502H1543.9M1591.19 336.502H1615.65M1543.9 336.502L1559.59 332.311M1543.9 336.502H1496.62M1496.62 336.502L1511.39 332.311M1575.91 327.954L1559.59 332.311M1575.91 327.954L1592.89 323.419M1575.91 327.954H1526.74M1575.91 327.954H1615.65M1559.59 332.311H1607.8M1559.59 332.311H1511.39M1607.8 332.311L1615.65 330.33M1607.8 332.311H1615.65M1511.39 332.311L1526.74 327.954M1592.89 323.419L1610.57 318.697M1592.89 323.419H1542.72M1592.89 323.419H1615.65M1526.74 327.954L1542.72 323.419M1542.72 323.419L1559.36 318.697M1610.57 318.697H1559.36M1610.57 318.697L1615.65 317.339M1610.57 318.697H1615.65M1559.36 318.697L1576.71 313.774M1594.81 308.639L1576.71 313.774M1594.81 308.639L1613.7 303.277M1594.81 308.639H1615.65M1576.71 313.774H1615.65M1615.93 313.774H1615.65M1613.7 303.277H1615.65M1613.7 303.277L1615.65 302.723M1616.12 302.59L1615.65 302.723M1603.14 355.258L1588.31 358.623M1603.14 355.258H1615.65M1603.14 355.258L1615.65 352.416M1588.31 358.623L1573.99 361.873M1588.31 358.623H1615.65M1532.3 361.873L1519.14 365.017M1532.3 361.873H1573.99M1573.99 361.873L1560.15 365.017M1573.99 361.873H1615.65M166.003 365.017H124.999M166.003 365.017H207.007M135.044 368.057L132.564 367.306L124.999 365.017M135.044 368.057H94.7089M124.999 365.017H83.9948M94.7089 368.057L92.0639 367.306L90.7323 366.929L83.9948 365.017M83.9948 365.017H42.9907M42.9907 365.017H1.98566M207.007 365.017H248.011M1.98566 365.017H-39.0185M-39.0185 365.017L-26.2941 368.057M-39.0185 365.017H-80.0225M-26.2941 368.057H-66.6288M330.02 365.017H289.015M330.02 365.017H371.024M296.382 368.057L294.563 367.306L293.648 366.929L289.015 365.017M296.382 368.057H256.047M289.015 365.017H248.011M256.047 368.057L248.011 365.017M371.024 365.017H412.029M494.037 365.017H453.033M494.037 365.017H535.041M457.721 368.057L457.143 367.683L456.563 367.306L455.981 366.929L453.033 365.017M457.721 368.057H417.386M453.033 365.017H412.029M417.386 368.057L412.029 365.017M535.041 365.017H576.046M658.054 365.017H617.05M658.054 365.017H699.058M619.059 368.057L617.05 365.017M619.059 368.057H578.724M617.05 365.017H576.046M578.724 368.057L578.394 367.683L578.063 367.306L577.73 366.929L576.046 365.017M699.058 365.017H740.062M822.071 365.017H781.066M822.071 365.017H863.075M780.397 368.057L781.066 365.017M780.397 368.057H740.062M781.066 365.017H740.062M740.062 368.057V365.017M863.075 365.017H904.08M986.088 365.017H945.084M986.088 365.017H1027.09M941.736 368.057L942.562 367.306L944.237 365.787L945.084 365.017M941.736 368.057H901.401M945.084 365.017H904.08M901.401 368.057L901.731 367.683L902.062 367.306L902.395 366.929L904.08 365.017M1027.09 365.017H1068.1M1150.1 365.017H1109.1M1150.1 365.017H1191.11M1103.07 368.057L1104.56 367.306L1105.31 366.929L1109.1 365.017M1103.07 368.057H1062.74M1109.1 365.017H1068.1M1062.74 368.057L1063.4 367.683L1068.1 365.017M1191.11 365.017H1232.11M1314.12 365.017H1273.12M1314.12 365.017H1355.13M1264.41 368.057L1266.56 367.306L1267.64 366.929L1273.12 365.017M1264.41 368.057H1224.08M1273.12 365.017H1232.11M1224.08 368.057L1225.07 367.683L1232.11 365.017M1355.13 365.017H1396.13M1478.14 365.017H1437.13M1478.14 365.017H1519.14M1425.75 368.057L1437.13 365.017M1425.75 368.057H1385.42M1437.13 365.017H1396.13M1385.42 368.057L1388.06 367.306L1389.39 366.929L1396.13 365.017M1519.14 365.017H1560.15M1587.09 368.057L1601.15 365.017M1587.09 368.057H1546.75M1587.09 368.057H1615.65M1601.15 365.017H1560.15M1601.15 365.017L1615.65 361.881M1601.15 365.017H1615.65M1546.75 368.057L1550.06 367.306L1560.15 365.017M-66.6288 368.057L-69.9359 367.306L-80.0225 365.017M-80.0225 365.017H-121.027M-121.027 365.017L-135.529 361.881M-121.027 365.017H-135.529M-135.529 219.902V223.611M-135.529 219.902V213.754M-135.529 223.611V232.909M-135.529 213.754V211.917V203.284M-135.529 203.284V192.144M-135.529 291.807V297.672M-135.529 291.807V286.159M-135.529 368.057V365.017M-135.529 365.017V361.881M-135.529 361.881L-135.564 361.873H-135.529M-135.529 361.881V361.873M-135.529 361.873V358.623M-135.529 358.623V355.258M-135.529 355.258V352.416M-135.529 352.416V351.773M-135.529 351.773V348.163M-135.529 348.163V344.419M-135.529 344.419V341.955M-135.529 341.955V340.535M-135.529 340.535V336.502M-135.529 336.502V332.311M-135.529 332.311V330.33M-135.529 330.33V327.954M-135.529 327.954V323.419M-135.529 323.419V318.697M-135.529 318.697V317.339M-135.529 317.339V313.774M-135.529 313.774V308.639M-135.529 308.639V303.277M-135.529 303.277V302.723M-135.529 302.723V297.672M-135.529 285.666V279.226M-135.529 285.666V286.159M-135.529 279.226V272.466M-135.529 272.466V267.229M-135.529 267.229V265.361M-135.529 265.361V257.885M-135.529 257.885V250.007M-135.529 250.007V245.386M-135.529 245.386V241.694M-135.529 241.694V232.909M-135.529 192.144V189.785M-135.529 189.785V180.268M-135.529 180.268V167.579M-135.529 167.579V153.991M-135.529 153.991V153.646M-135.529 153.646V139.404M-135.529 139.404V123.706M-135.529 123.706V109.474M-135.529 109.474V106.763M-135.529 106.763V88.4214M-135.529 88.4214V68.5011M-135.529 68.5011V54.2599M-135.529 54.2599V46.7888M-135.529 46.7888V23.0311M-135.529 23.0311V-3.07567M-135.529 -3.07567V-16.7297M-135.529 -16.7297V-31.8971M-135.529 -31.8971V-32H1615.65V-31.8971M1615.65 285.666V279.226M1615.65 285.666V286.159M1615.65 286.159V291.807M1615.65 291.807V297.672M1615.65 297.672V302.723M1615.65 302.723V303.277M1615.65 303.277V308.639M1615.65 308.639V313.774M1615.65 313.774V317.339M1615.65 317.339V318.697M1615.65 318.697V323.419M1615.65 323.419V327.954M1615.65 327.954V330.33M1615.65 330.33V332.311M1615.65 332.311V336.502M1615.65 336.502V340.535M1615.65 340.535V341.955M1615.65 341.955V344.419M1615.65 344.419V348.163M1615.65 348.163V351.773M1615.65 351.773V352.416M1615.65 352.416V355.258M1615.65 355.258V358.623M1615.65 358.623V361.873M1615.65 361.873H1615.69L1615.65 361.881M1615.65 361.873V361.881M1615.65 361.881V365.017M1615.65 365.017V368.057M1615.65 -31.8971V-16.7297M1615.65 -16.7297V-3.07567M1615.65 -3.07567V23.0306M1615.65 23.0306V46.7888M1615.65 46.7888V54.2599M1615.65 54.2599V68.5011M1615.65 68.5011V88.4214M1615.65 88.4214V106.763M1615.65 106.763V109.474M1615.65 109.474V123.706M1615.65 123.706V139.404M1615.65 139.404V153.646M1615.65 153.646V153.991M1615.65 153.991V167.579M1615.65 167.579V180.268M1615.65 180.268V189.785M1615.65 189.785V192.144M1615.65 192.144V203.284M1615.65 203.284V213.754M1615.65 213.754V219.902M1615.65 219.902V223.611M1615.65 223.611V232.909M1615.65 232.909V241.694M1615.65 241.694V245.386M1615.65 245.386V250.007M1615.65 250.007V257.885M1615.65 257.885V265.361M1615.65 265.361V267.229M1615.65 267.229V272.466M1615.65 272.466V279.226" stroke="url(#paint0_radial_25420_6971)" stroke-opacity="0.2" stroke-width="1.05907" stroke-miterlimit="10" stroke-linecap="round" stroke-linejoin="round"/>
<defs>
<radialGradient id="paint0_radial_25420_6971" cx="0" cy="0" r="1" gradientUnits="userSpaceOnUse" gradientTransform="translate(740.062 -17.1467) rotate(90) scale(630.844 2742.72)">
<stop stop-color="#CED2DF"/>
<stop offset="0.489074" stop-color="#CED2DF" stop-opacity="0"/>
</radialGradient>
</defs>
</svg>
